<?xml version="1.0" encoding="UTF-8" standalone="no"?>
<svg
   xmlns:dc="http://purl.org/dc/elements/1.1/"
   xmlns:cc="http://creativecommons.org/ns#"
   xmlns:rdf="http://www.w3.org/1999/02/22-rdf-syntax-ns#"
   xmlns:svg="http://www.w3.org/2000/svg"
   xmlns="http://www.w3.org/2000/svg"
   xmlns:sodipodi="http://sodipodi.sourceforge.net/DTD/sodipodi-0.dtd"
   xmlns:inkscape="http://www.inkscape.org/namespaces/inkscape"
   version="1.1"
   viewBox="0 0 700.00003 700.00002"
   id="svg54"
   sodipodi:docname="outback-steakhouse-logo.svg"
   width="700"
   height="700"
   inkscape:version="0.92.4 (5da689c313, 2019-01-14)"
   inkscape:export-filename="C:\Users\suitedoalex\sites\outback-logo-0.png"
   inkscape:export-xdpi="561.73712"
   inkscape:export-ydpi="561.73712">
  <metadata
     id="metadata60">
    <rdf:RDF>
      <cc:Work
         rdf:about="">
        <dc:format>image/svg+xml</dc:format>
        <dc:type
           rdf:resource="http://purl.org/dc/dcmitype/StillImage" />
        <dc:title></dc:title>
      </cc:Work>
    </rdf:RDF>
  </metadata>
  <defs
     id="defs58" />
  <sodipodi:namedview
     pagecolor="#ffffff"
     bordercolor="#666666"
     borderopacity="1"
     objecttolerance="10"
     gridtolerance="10"
     guidetolerance="10"
     inkscape:pageopacity="0"
     inkscape:pageshadow="2"
     inkscape:window-width="1600"
     inkscape:window-height="837"
     id="namedview56"
     showgrid="false"
     inkscape:zoom="0.632456"
     inkscape:cx="242.6777"
     inkscape:cy="480.47129"
     inkscape:window-x="-8"
     inkscape:window-y="-8"
     inkscape:window-maximized="1"
     inkscape:current-layer="svg54" />
  <path
     class="cls-1"
     d="m 189.73181,446.02611 c 3.3548,1.86029 7.42028,3.06216 11.49621,1.94391 a 8.2981762,8.2981762 0 0 0 3.90872,-4.29542 4.7761543,4.7761543 0 0 0 -2.58143,-5.43456 c -3.99232,-1.78716 -9.53141,-2.18429 -11.25584,-7.21126 a 11.496214,11.496214 0 0 1 1.25413,-5.43458 c 3.66835,-2.74864 8.74758,-2.90541 12.96983,-1.36911 1.17052,0.88836 0.62707,2.60235 0.38668,3.73105 -3.04126,-0.98241 -6.87682,-2.67548 -9.91809,-0.57481 a 2.8636023,2.8636023 0 0 0 -1.17053,3.88783 c 4.7657,3.73104 15.31087,3.57426 13.51328,13.05341 -0.62707,3.8042 -4.36856,6.15571 -7.65021,6.97089 a 15.185453,15.185453 0 0 1 -11.09906,-2.09023 c -0.22993,-0.98239 -0.4703,-2.35149 0.15676,-3.13533"
     id="path2"
     style="fill:#b44921;fill-opacity:1;stroke-width:1.04511046"
     inkscape:connector-curvature="0"
     inkscape:export-filename="C:\Users\suitedoalex\sites\outback-logo-4.png"
     inkscape:export-xdpi="69.574913"
     inkscape:export-ydpi="69.574913" />
  <path
     class="cls-1"
     d="m 219.73693,423.49352 c 5.77946,-0.72113 10.70193,0.57482 16.16785,0.4076 a 3.135331,3.135331 0 0 1 0.39714,2.67548 c -2.65457,0.88834 -6.27065,-1.13918 -7.50389,1.77669 l -0.38669,22.77295 c -0.86744,0.32399 -2.43511,0.32399 -2.65457,-0.81518 v -23.1701 l -0.55391,-0.56436 h -6.72006 c -0.62707,-0.9824 -0.78383,-3.80421 1.25413,-3.13533"
     id="path4"
     style="fill:#b44921;fill-opacity:1;stroke-width:1.04511046"
     inkscape:connector-curvature="0"
     inkscape:export-filename="C:\Users\suitedoalex\sites\outback-logo-4.png"
     inkscape:export-xdpi="69.574913"
     inkscape:export-ydpi="69.574913" />
  <path
     class="cls-1"
     d="m 248.25799,424.06834 c 5.46592,-0.57482 10.07486,0.31353 15.54079,0 0.62706,0.64796 0.39714,1.69307 0.62706,2.50826 l -0.62706,0.39713 -12.21734,0.16723 c -1.04511,2.18429 -1.04511,5.84216 0.38669,7.78607 a 63.500904,63.500904 0 0 1 11.7993,-0.1672 c 0.71068,0.56435 0.31352,1.70351 0.39713,2.51871 l -0.5539,0.39713 c -4.36856,0.8152 -8.27727,-0.80473 -12.34275,0.56437 -0.93016,2.99946 0.15679,5.92576 -0.24037,9.32238 1.4945,1.4527 4.07592,0.48075 5.63314,0.97195 l 0.93014,-0.32398 6.17661,0.15679 c 1.04511,0.64797 0.54345,2.02751 0.39713,2.92631 a 153.08777,153.08777 0 0 1 -16.0947,0 c 0.61662,-9.56275 -0.4703,-17.42199 0.15679,-27.17287"
     id="path6"
     style="fill:#b44921;fill-opacity:1;stroke-width:1.04511046"
     inkscape:connector-curvature="0"
     inkscape:export-filename="C:\Users\suitedoalex\sites\outback-logo-4.png"
     inkscape:export-xdpi="69.574913"
     inkscape:export-ydpi="69.574913" />
  <path
     class="cls-1"
     d="m 290.25051,436.29613 c -1.56766,-0.16722 -3.13533,0.25083 -4.68209,-0.56437 0.70023,-2.35149 1.4109,-5.11058 2.95768,-6.80367 0.86742,2.2679 2.19471,4.28495 2.42464,6.80367 z m 9.91812,13.58643 c -3.43843,-8.84164 -6.55286,-17.82958 -10.45111,-26.42038 -1.04512,-0.15679 -2.66503,-0.64797 -3.43842,0.40758 -3.28163,8.98795 -6.56329,18.06997 -9.69862,27.17287 0.4703,1.04511 1.41089,0.24038 2.43511,0.56435 2.41421,-3.80419 2.58141,-8.66395 5.62269,-12.07101 l 8.03689,0.16721 c 2.3515,3.56384 2.90542,7.84879 4.84932,11.49623 l 1.71397,0.1672 c 0.857,0.0836 1.04513,-0.72112 0.94062,-1.53631"
     id="path8"
     style="fill:#b44921;fill-opacity:1;stroke-width:1.04511046"
     inkscape:connector-curvature="0"
     inkscape:export-filename="C:\Users\suitedoalex\sites\outback-logo-4.png"
     inkscape:export-xdpi="69.574913"
     inkscape:export-ydpi="69.574913" />
  <path
     class="cls-1"
     d="m 314.43438,424.21465 c 0.78382,0.25082 2.58142,-1.29594 2.65458,0.63752 0.31353,3.40706 -0.70022,6.98134 0.15678,9.8972 h 0.95105 c 3.81465,-3.73105 7.02313,-6.88729 10.69149,-10.53472 l 3.59517,0.25082 v 0.72113 c -3.90872,3.97142 -8.27727,7.21126 -11.49623,11.49623 3.05174,5.22554 8.20413,9.71952 10.94231,14.98688 a 4.0236749,4.0236749 0 0 1 -3.59517,0 c -3.13533,-4.703 -7.03359,-9.07157 -10.4511,-13.58644 -1.04512,-0.32398 -0.93015,0.80473 -1.17053,1.37953 l -0.38669,11.98743 c -0.78382,0.24038 -2.19473,0.49121 -2.58141,-0.32399 -0.22993,-9.15516 0.38668,-17.76688 0.70022,-26.90115"
     id="path10"
     style="fill:#b44921;fill-opacity:1;stroke-width:1.04511046"
     inkscape:connector-curvature="0"
     inkscape:export-filename="C:\Users\suitedoalex\sites\outback-logo-4.png"
     inkscape:export-xdpi="69.574913"
     inkscape:export-ydpi="69.574913" />
  <path
     class="cls-1"
     d="m 346.16393,424.06834 c 0.45984,-0.74203 1.40044,-0.25082 2.02751,-0.4076 1.88119,3.08307 -0.4703,7.61886 1.32729,10.93186 4.18044,0.56436 8.13096,-0.32398 12.42635,0 l 0.94062,-1.21233 c 0.22992,-3.32344 0.0836,-5.67495 0.14623,-8.90434 0.71068,-0.40759 1.64084,-0.89879 2.42466,-0.40759 0.86745,9.63591 0,17.49514 0,27.0579 a 6.4692331,6.4692331 0 0 1 -2.26788,0.32399 l -0.533,-0.73157 a 62.340833,62.340833 0 0 0 -0.16722,-12.63539 c -4.05503,-0.64797 -8.51766,-0.4076 -12.96982,-0.25083 l -0.74203,1.01377 -0.38669,12.31138 c -0.54346,0.64797 -1.4736,0.24038 -2.25745,0.32398 l -0.38669,-0.73158 c -0.1672,-9.97034 0.21948,-18.22671 0.38669,-26.65031"
     id="path12"
     style="fill:#b44921;fill-opacity:1;stroke-width:1.04511046"
     inkscape:connector-curvature="0"
     inkscape:export-filename="C:\Users\suitedoalex\sites\outback-logo-4.png"
     inkscape:export-xdpi="69.574913"
     inkscape:export-ydpi="69.574913" />
  <path
     class="cls-1"
     d="m 399.61087,440.7483 c -1.32729,3.49067 -4.37902,6.97088 -8.28773,7.46209 -3.3548,0 -6.72006,-0.49121 -8.74756,-3.32346 a 12.436814,12.436814 0 0 1 -1.88121,-11.10952 11.088621,11.088621 0 0 1 4.45216,-6.27066 c 3.44888,-2.09022 7.58751,-1.04511 10.86916,0.56435 3.19804,3.40707 4.92247,7.85924 3.59518,12.63539 m -0.93014,-14.73604 c -4.38948,-3.5743 -9.78225,-3.80422 -14.85103,-1.53632 -3.76239,1.93345 -5.86307,5.98848 -6.73051,9.88673 -1.04511,6.07211 1.04512,12.06058 6.1766,15.55125 4.18045,1.69308 9.84495,2.74864 13.6805,-0.16722 a 15.875226,15.875226 0 0 0 6.27066,-10.53471 16.18876,16.18876 0 0 0 -4.52534,-13.19973"
     id="path14"
     style="fill:#b44921;fill-opacity:1;stroke-width:1.04511046"
     inkscape:connector-curvature="0"
     inkscape:export-filename="C:\Users\suitedoalex\sites\outback-logo-4.png"
     inkscape:export-xdpi="69.574913"
     inkscape:export-ydpi="69.574913" />
  <path
     class="cls-1"
     d="m 416.33264,423.66074 c 0.54344,-0.88835 1.25412,0.15679 2.09021,-0.16722 l 0.53302,0.73157 0.24037,18.88515 a 6.5737441,6.5737441 0 0 0 3.51158,4.28495 c 1.17051,1.12872 2.58141,-0.15679 3.75193,0.97196 2.7382,-0.73158 5.63316,-2.34104 6.41698,-5.41368 l 0.14624,-19.29273 c 0.5539,-0.64798 1.64082,-0.39714 2.26788,-0.16722 l 0.54345,0.98241 -0.15678,19.19867 c -0.22992,2.98901 -2.8009,5.91532 -5.46594,7.04406 -4.18044,1.78713 -8.91479,0.32397 -12.17553,-2.50827 a 11.328996,11.328996 0 0 1 -2.09021,-5.50775 z"
     id="path16"
     style="fill:#b44921;fill-opacity:1;stroke-width:1.04511046"
     inkscape:connector-curvature="0"
     inkscape:export-filename="C:\Users\suitedoalex\sites\outback-logo-4.png"
     inkscape:export-xdpi="69.574913"
     inkscape:export-ydpi="69.574913" />
  <path
     class="cls-1"
     d="m 449.10729,445.84843 c 3.66833,1.78714 8.20413,3.2503 12.19643,0.98241 a 5.7481069,5.7481069 0 0 0 2.57098,-6.08254 c -3.44885,-5.90488 -16.40822,-3.23984 -12.89667,-13.77457 1.49452,-2.74864 4.45218,-3.80419 7.26353,-4.04456 2.26789,0.39714 5.00607,0.24037 6.57374,1.93345 l -0.1672,2.68594 c -2.73821,-0.72112 -6.63646,-2.02753 -9.60458,-0.4076 -1.7976,0.81518 -1.17053,2.99946 -0.55391,4.2954 4.2954,3.2503 12.90713,3.13533 12.42637,10.94231 a 8.7162203,8.7162203 0 0 1 -4.91202,7.93239 c -3.83557,2.09023 -9.30148,1.22278 -12.89667,-0.80473 0,-1.21233 -0.85699,-2.51872 0,-3.6579"
     id="path18"
     style="fill:#b44921;fill-opacity:1;stroke-width:1.04511046"
     inkscape:connector-curvature="0"
     inkscape:export-filename="C:\Users\suitedoalex\sites\outback-logo-4.png"
     inkscape:export-xdpi="69.574913"
     inkscape:export-ydpi="69.574913" />
  <path
     class="cls-1"
     d="m 481.33851,423.49352 c 5.7899,-0.56435 9.40598,0.24038 15.2377,0 a 3.6160818,3.6160818 0 0 1 0.16721,2.67548 l -12.54132,0.80473 a 14.171696,14.171696 0 0 0 0,6.81414 c 3.89826,0.73157 8.03691,0.24037 12.4159,0.40758 0.63753,0.73158 0.39715,2.01706 0.16723,2.90541 l -12.75035,0.4076 c -0.93014,2.99947 0.16722,6.56329 -0.15679,9.32238 l 1.24369,0.9615 11.66344,0.41805 c 0.14623,0.80473 0.61661,2.26789 -0.4076,2.91585 h -14.80921 l -0.53301,-0.39713 v -26.66077 z"
     id="path20"
     style="fill:#b44921;fill-opacity:1;stroke-width:1.04511046"
     inkscape:connector-curvature="0"
     inkscape:export-filename="C:\Users\suitedoalex\sites\outback-logo-4.png"
     inkscape:export-xdpi="69.574913"
     inkscape:export-ydpi="69.574913" />
  <path
     class="cls-1"
     d="m 517.4157,430.91382 c 1.41091,0 3.46977,0.24037 3.46977,-1.84986 0,-1.59902 -1.25413,-1.79759 -2.4769,-1.79759 h -2.8427 v 3.64745 z m 4.67165,5.72719 h -1.4527 l -2.83225,-4.73435 h -2.23653 v 4.73435 h -1.21233 v -10.27343 h 4.3372 c 2.62323,0 3.52202,1.04511 3.52202,2.71729 0,2.01706 -1.36909,2.76954 -3.13534,2.82179 z m 3.03081,-5.15239 c 0,-4.47307 -3.13533,-7.96374 -7.46208,-7.96374 -4.32676,0 -7.49344,3.49067 -7.49344,7.96374 0,4.47308 3.13534,8.02645 7.49344,8.02645 4.35812,0 7.46208,-3.50112 7.46208,-8.02645 m -16.36643,0 a 8.8938892,8.8938892 0 1 1 8.90435,9.24922 9.0506556,9.0506556 0 0 1 -8.90435,-9.24922"
     id="path22"
     style="fill:#b44921;fill-opacity:1;stroke-width:1.04511046"
     inkscape:connector-curvature="0"
     inkscape:export-filename="C:\Users\suitedoalex\sites\outback-logo-4.png"
     inkscape:export-xdpi="69.574913"
     inkscape:export-ydpi="69.574913" />
  <path
     class="cls-1"
     d="m 429.95042,355.30008 c 1.93345,0.17767 5.83172,-0.73159 6.70962,2.19473 a 28.709181,28.709181 0 0 1 1.4109,10.4511 c -2.99948,1.8185 -5.6436,5.67495 -8.9984,2.18429 -3.69971,-1.46316 -1.76625,-5.30916 -1.58858,-8.23548 3.13534,-1.04511 1.94392,-4.379 2.46646,-6.57374 m -83.26395,-17.69372 c 3.60564,-0.51212 7.71293,-0.34489 9.3433,3.74149 a 12.541324,12.541324 0 0 1 -7.05451,11.91427 c -1.63036,-0.51212 -3.60562,-0.857 -4.26403,-2.89496 -0.64799,-4.24316 -2.94722,-10.04353 1.97524,-12.7608 m -1.0451,28.21797 c 2.79044,1.2855 5.59135,-1.12871 7.91148,1.12873 2.93676,3.36525 2.16338,8.5072 0.77339,12.36365 -0.77339,1.76624 -2.48735,4.02367 -4.50443,4.18044 -1.84984,-0.64795 -4.80751,-0.64795 -5.22554,-3.38615 -1.84986,-4.81797 0.15678,-9.80313 1.0451,-14.29711 m -242.9359,-14.48524 c 2.55007,-3.13533 4.99563,-6.60509 9.00885,-7.62931 4.69254,0.61662 7.63976,4.18046 10.57651,7.62931 1.17053,6.79322 0.98241,13.91042 -1.66172,19.90936 -1.87075,2.4351 -4.51488,5.22556 -7.74426,5.1733 -4.69256,1.21233 -7.24263,-2.64414 -9.406,-5.90488 -0.59571,-4.85976 -1.96481,-9.53139 -0.78384,-14.30756 z m 437.77582,32.1058 a 23.734455,23.734455 0 0 1 0.28218,-3.2921 19.083714,19.083714 0 0 0 0.22993,-2.32015 2.3933028,2.3933028 0 0 0 -0.13585,-0.88833 l -0.91969,-0.0941 a 6.145249,6.145249 0 0 0 -1.66172,-0.16723 v 0 l -1.04513,0.41804 -6.16614,0.41805 c -4.00277,0.37624 -8.14142,0.7734 -12.60403,-0.14623 l -0.37625,-0.19857 -8.11006,-4.32676 -0.48075,-0.79429 a 20.829049,20.829049 0 0 1 -3.04125,-10.35704 13.137037,13.137037 0 0 1 1.54676,-6.27065 c 0,0.0731 -0.0836,0.10448 -0.0941,0.1672 l 0.16722,-0.33443 c 0,0.0523 0,0.11491 -0.0731,0.16723 1.55721,-3.45932 4.71343,-5.22556 7.31577,-6.59465 l 2.21562,-1.27505 c 3.43842,-3.54291 7.71293,-3.20848 10.90052,-2.89495 a 12.541324,12.541324 0 0 0 4.77615,-0.0731 10.210728,10.210728 0 0 1 6.36472,-0.34489 10.586968,10.586968 0 0 0 1.42135,0.18812 c 0,-0.26126 0.11491,-0.50164 0.11491,-0.77338 a 25.751519,25.751519 0 0 0 -0.25082,-2.92631 29.148128,29.148128 0 0 1 -0.29263,-3.67878 13.189293,13.189293 0 0 1 0.41804,-3.13534 14.788311,14.788311 0 0 1 -0.40759,-3.38615 c 0,-0.77338 0,-1.56767 0.0836,-2.34104 0.0836,-0.77339 0,-1.45271 0,-2.09023 a 5.4136717,5.4136717 0 0 0 -0.67934,-3.04128 h -0.30292 c -1.41088,-0.1672 -2.09022,-0.22991 -2.42465,0.0523 l -1.10782,0.98241 -1.4736,-0.14624 a 27.475952,27.475952 0 0 0 -5.50773,0.21946 26.869787,26.869787 0 0 1 -8.63262,-0.19855 l -6.27065,0.75246 c -6.94999,0.65842 -13.51328,1.27504 -17.56831,6.27067 l -0.62707,0.76293 -0.91969,0.31353 c -3.79376,1.2855 -6.42743,5.22556 -8.98795,9.10292 l -0.66888,1.04511 -0.45984,0.35533 c -4.98519,3.79375 -5.22556,9.59411 -5.52864,16.31417 0,0 -0.4076,5.22556 -0.52256,6.64691 a 32.555188,32.555188 0 0 1 2.59188,10.23164 22.114535,22.114535 0 0 0 7.49344,11.59026 l 0.9406,0.71067 0.28219,1.12872 c 0.43893,1.76624 2.26788,2.86361 5.22555,4.45218 a 29.064519,29.064519 0 0 1 4.75525,3.04126 l 0.37624,0.30309 0.27173,0.40758 c 0.54345,0.8152 1.80804,0.95107 4.38946,1.04513 a 20.703637,20.703637 0 0 1 4.95382,0.74203 11.642529,11.642529 0 0 1 7.55615,0 8.2250184,8.2250184 0 0 0 3.26075,0.43894 l 0.533,-0.10448 0.53301,0.0523 a 10.294337,10.294337 0 0 0 3.26074,-0.50164 c 2.3097,-0.56437 5.36141,-1.17054 8.36088,0.42848 l 2.19474,-0.18811 a 11.496214,11.496214 0 0 0 4.41035,-0.82564 11.882904,11.882904 0 0 0 0.39715,-3.32345 c 0,-0.44939 0,-0.90924 0,-1.36908 0,-0.45987 0,-1.04513 0,-1.52588 a 21.142582,21.142582 0 0 1 0.59571,-5.02698 9.9389994,9.9389994 0 0 1 -0.84654,-3.8251 M 379.08491,365.20776 c -0.54347,-1.94391 -0.80475,-2.60233 -1.80804,-3.13533 l -2.81135,-1.33774 1.09736,-2.91587 a 20.390104,20.390104 0 0 1 3.03082,-4.98516 c 1.58857,-2.09023 2.36195,-3.27121 2.36195,-4.51489 a 2.9785645,2.9785645 0 0 0 -0.11491,-0.83609 l -0.43895,-1.66172 1.04511,-1.32729 a 6.166151,6.166151 0 0 0 1.13918,-4.00279 20.766342,20.766342 0 0 0 -0.55392,-4.18043 c -0.61662,-0.9615 -1.79759,-2.86359 -1.79759,-2.86359 -2.3724,-4.04458 -3.66833,-5.83174 -6.1557,-5.91533 h -1.42135 l -0.9615,-1.04511 c -2.456,-2.68594 -7.31578,-2.45602 -11.2872,-2.27834 h -0.29261 a 50.740107,50.740107 0 0 1 -13.58644,0 30.3082,30.3082 0 0 1 -10.69149,0.35534 37.070064,37.070064 0 0 0 -7.08584,-0.22993 c -3.13533,2.03797 -6.27066,0.97196 -8.04735,0.24038 a 15.237709,15.237709 0 0 0 -1.63038,-0.59571 l -0.32398,0.32398 a 0.48075076,0.48075076 0 0 0 -0.14624,0.37623 7.6188545,7.6188545 0 0 0 0.39715,1.69309 12.259144,12.259144 0 0 1 0.67932,3.64743 6.8559238,6.8559238 0 0 1 -1.21233,3.63698 6.2706621,6.2706621 0 0 0 -0.30308,1.98572 22.616188,22.616188 0 0 0 1.26458,6.13479 l 0.38669,1.28548 -0.39714,1.04512 a 22.15634,22.15634 0 0 0 -1.25413,7.72337 36.119013,36.119013 0 0 0 0.62707,6.51104 l 0.14624,0.77337 -0.20901,0.74203 a 25.490242,25.490242 0 0 0 -0.80473,6.77232 63.385943,63.385943 0 0 0 1.17051,11.02591 l 0.25083,1.4318 -0.86745,1.18097 a 6.6678041,6.6678041 0 0 0 -0.88833,3.79376 15.112296,15.112296 0 0 0 0.85699,5.00608 l 0.62705,1.70352 -1.0451,1.4736 a 8.8207315,8.8207315 0 0 0 -1.16007,4.81796 9.9180972,9.9180972 0 0 0 0.54345,3.25029 c 4.26406,0.12546 8.11006,0.0941 11.96653,-1.35863 l 1.17051,-0.44941 1.18098,0.42851 a 17.192065,17.192065 0 0 0 11.30809,0 l 1.60946,-0.57481 1.43182,0.94059 a 6.9813372,6.9813372 0 0 0 2.29923,0.40759 l 1.7767,0.24037 a 39.233443,39.233443 0 0 1 10.61831,-0.32398 44.584408,44.584408 0 0 0 6.27067,0.14625 l 9.07154,-2.93678 c 1.77671,-0.70021 2.52918,-2.46645 3.5952,-5.30916 a 24.580996,24.580996 0 0 1 2.25743,-4.8702 l 0.64796,-1.04511 0.77339,-0.25083 c 0.0731,-0.20902 0.27174,-0.75249 0.34489,-0.9824 0,-0.60617 -0.11491,-1.20188 -0.11491,-1.78714 0,-1.44225 0.12545,-2.83226 0.25082,-4.12819 0.12547,-1.29594 0.21947,-2.40376 0.21947,-3.37571 a 6.4274287,6.4274287 0 0 0 -0.91969,-3.64742 10.733283,10.733283 0 0 1 -4.08638,-6.38563 m 246.25935,22.50123 a 19.857097,19.857097 0 0 0 -0.39714,-3.2921 24.257011,24.257011 0 0 1 -0.51212,-4.48354 13.471473,13.471473 0 0 1 0.27173,-2.44554 l -3.30253,-2.50828 c -3.56384,-2.70683 -6.93955,-5.22555 -10.64969,-6.27065 l -1.99615,-0.60616 -0.8361,-3.58473 a 21.748747,21.748747 0 0 1 -0.85699,-5.41367 10.524261,10.524261 0 0 1 0.66887,-3.71015 1.7662365,1.7662365 0 0 0 -0.11492,0.28218 l 0.15679,-0.50166 a 1.619921,1.619921 0 0 0 0,0.21948 c 0.7734,-2.93676 3.13533,-4.57758 4.94338,-5.75857 l 0.3867,-0.26126 c 1.84983,-3.7624 4.95382,-5.89442 7.78607,-7.72337 a 14.265756,14.265756 0 0 0 4.81795,-4.28495 6.8872772,6.8872772 0 0 0 -2.28879,-2.7173 l -0.9824,-0.81518 -0.21947,-1.25414 c -0.58526,-3.58473 -4.65074,-6.07208 -8.23548,-8.27727 l -0.79429,-0.26127 -0.73157,0.10449 c -2.97856,0.37624 -3.30254,0.65841 -3.46977,1.33773 l -0.41803,1.70353 -1.65129,0.63752 c -2.78,1.0451 -5.73765,3.89827 -7.91148,7.52479 l -0.74203,1.25414 -1.44226,0.31352 c -0.36578,0.0836 -0.9824,0.91972 -1.52585,1.64084 -1.12872,1.53631 -2.66503,3.62652 -5.52864,4.24314 l -1.71398,0.38669 -1.30639,-1.20187 a 6.5319397,6.5319397 0 0 1 -2.0902,-4.78661 9.0193023,9.0193023 0 0 1 -1.41091,-4.52532 17.871387,17.871387 0 0 1 0.78383,-4.67164 14.077636,14.077636 0 0 0 0.60617,-3.30256 c 0,-0.14624 0,-0.28218 -0.0523,-0.42849 -0.62706,-0.79429 -1.70353,-0.85699 -5.62269,0.13586 a 22.563933,22.563933 0 0 1 -5.43458,0.90925 h -2.14247 l -0.5748,-1.27503 h -0.21948 a 13.022074,13.022074 0 0 1 -7.53526,0.28217 c -0.76291,-0.14641 -1.44224,-0.21947 -2.09021,-0.29263 0,0.38669 -0.1149,0.75247 -0.1149,0.75247 l -0.0941,0.78384 a 16.836728,16.836728 0 0 1 0.56435,3.80421 41.219153,41.219153 0 0 1 -0.44939,5.22555 35.13661,35.13661 0 0 0 -0.39715,4.3581 8.8102802,8.8102802 0 0 0 0.67932,3.59518 l 0.50165,1.16008 -0.37623,1.22279 a 21.738295,21.738295 0 0 0 -1.04512,6.47967 13.973126,13.973126 0 0 0 0.533,4.01322 l 0.15679,0.48075 -0.20902,8.48631 -0.19856,16.38732 0.18811,2.09023 a 23.49408,23.49408 0 0 1 0.25083,2.99946 10.012157,10.012157 0 0 1 -0.52257,3.25029 24.580996,24.580996 0 0 0 -0.41802,4.61938 39.411111,39.411111 0 0 0 0.54345,6.08256 l 0.5748,-0.16723 a 10.106217,10.106217 0 0 1 4.60894,-0.78382 l 0.86744,0.0941 0.72114,0.51212 a 2.9681133,2.9681133 0 0 0 1.76622,0.28216 l 2.24699,-0.68976 0.8152,0.90923 h 0.50163 c 3.37572,-2.67547 6.84548,-1.30639 8.61173,-0.50163 1.76623,0.80473 1.9648,0.75246 2.33058,0.49118 l 0.62707,-0.35534 c -0.0732,-0.37622 -0.24038,-0.91969 -0.36579,-1.34817 a 13.690946,13.690946 0 0 1 -0.83608,-4.24316 7.6920122,7.6920122 0 0 1 0.8779,-3.61608 l 0.21946,-0.41804 0.33443,-0.35534 a 3.0726244,3.0726244 0 0 0 0.29264,-1.73489 c 0,-0.37623 0,-0.75248 0,-1.10781 0,-0.35534 0,-0.90925 0,-1.37955 a 10.70193,10.70193 0 0 1 0.75249,-4.31629 l 1.29593,-2.97858 3.03082,1.17053 c 2.74865,1.04511 4.36855,3.34436 5.6854,5.16284 l 0.9197,1.25413 -0.41805,-0.43895 3.83555,4.01322 a 27.570011,27.570011 0 0 0 4.48353,4.39993 c 3.77284,0.14623 6.03029,2.63368 7.55615,4.36855 1.19142,1.35865 1.923,2.09023 2.8636,2.27835 l 1.0451,0.32398 0.56437,0.34489 a 7.5247945,7.5247945 0 0 0 1.93346,-0.0836 9.6568197,9.6568197 0 0 1 5.01652,0.33443 l 0.21947,0.0941 0.24039,0.12546 a 20.557321,20.557321 0 0 1 0.76293,-4.18043 11.255839,11.255839 0 0 0 0.5539,-2.82181 3.135331,3.135331 0 0 0 -0.27173,-1.33774 l -0.6375,-1.44226 0.68976,-1.41089 a 5.0792363,5.0792363 0 0 0 0.52254,-2.36195 m -152.63836,7.69202 a 43.267567,43.267567 0 0 1 -4.41035,-11.27674 38.533218,38.533218 0 0 0 -3.49067,-9.406 l -0.38671,-0.66886 -0.0523,-0.78384 a 15.593046,15.593046 0 0 0 -3.52202,-8.44449 l 0.37625,0.41804 c -2.62324,-2.45601 -2.52917,-5.63314 -2.45603,-7.73381 0,-1.35864 0,-2.21563 -0.29261,-2.60233 -4.02368,-3.38616 -4.45218,-7.98465 -4.76572,-11.72613 -0.19856,-2.39331 -0.3867,-4.6612 -1.35863,-6.16616 a 16.126053,16.126053 0 0 1 -2.45601,-7.13811 12.060574,12.060574 0 0 0 -1.04511,-3.91915 l -0.11492,-0.20902 -0.0941,-0.22993 c -0.56435,-1.41091 -0.64796,-1.64083 -4.36856,-0.99285 a 17.254773,17.254773 0 0 1 -7.02314,0 4.0968326,4.0968326 0 0 1 -1.30638,-0.0941 l -0.61662,0.17766 a 8.5176493,8.5176493 0 0 1 -6.16614,-0.0523 l -4.73436,0.19856 c -3.88782,0.27174 -8.23546,0.51211 -12.25914,-0.38669 l -0.37624,0.17767 c -2.46646,1.28549 -4.52533,1.13917 -6.27067,-0.17767 l -1.0451,-0.28217 a 6.5110374,6.5110374 0 0 0 -0.58527,2.61277 6.9604349,6.9604349 0 0 0 0.16723,1.52585 11.193132,11.193132 0 0 1 0.9406,4.36857 24.204755,24.204755 0 0 1 -0.62708,4.88066 19.125519,19.125519 0 0 0 -0.48075,3.41753 3.2711954,3.2711954 0 0 0 0.64798,2.0066 8.1936652,8.1936652 0 0 0 1.13916,0.0941 7.7442678,7.7442678 0 0 1 6.36472,2.57097 l 0.79428,1.25413 -0.0627,3.95051 v 1.12873 c 0,3.13533 -0.39715,6.84547 -3.00992,9.76133 a 18.007252,18.007252 0 0 1 -2.50827,7.12764 c -0.97195,1.8185 -1.58857,3.04128 -1.58857,4.28496 a 2.7590912,2.7590912 0 0 0 0,0.29263 l 0.12546,1.59902 -1.10781,1.13918 c -2.15293,2.09021 -2.91586,5.47637 -3.71015,9.05064 l -0.58525,2.62323 -1.33775,0.13585 a 17.32793,17.32793 0 0 1 -2.97856,7.71292 13.586434,13.586434 0 0 0 -1.89164,4.29539 15.373573,15.373573 0 0 0 1.72442,-0.22991 16.178308,16.178308 0 0 1 4.52533,-0.21948 10.660125,10.660125 0 0 1 5.54955,-0.32397 l 1.17051,0.12545 a 9.9285483,9.9285483 0 0 1 7.03359,-0.11491 c 1.5363,0.42849 1.93346,0.38668 2.23654,0.20902 a 4.0654793,4.0654793 0 0 0 0.4494,-1.0451 l 0.32398,-1.50497 0.97195,-0.90924 0.42851,-0.98241 a 8.5908071,8.5908071 0 0 1 2.48736,-3.99232 l 0.12546,-0.10448 0.12546,-0.0941 c 5.22555,-3.64744 11.67389,-2.97856 16.88898,-2.43511 l 0.95105,0.0836 c 6.27066,-0.24038 9.0402,5.50773 10.73329,8.98795 0,0 0.25082,0.49119 0.48075,0.97195 a 6.7932172,6.7932172 0 0 0 5.2778,-0.76292 l 1.8185,-1.04512 1.74532,1.16008 c 1.64083,1.0451 3.72059,0.79428 6.94998,0.1672 l 4.62985,-0.84653 0.74203,1.64084 0.533,0.0941 a 3.2189399,3.2189399 0 0 0 0.94059,-0.63753 14.474778,14.474778 0 0 0 -0.34488,-2.36194 c 0,0 0,-0.15678 -0.0733,-0.32398 m -172.24463,-72.353 0.42848,-0.15678 c -0.17766,0.0836 -0.35534,0.094 -0.533,0.16722 z m -68.53835,64.94316 -0.43895,-0.60616 v -5.03743 c 0,-0.70023 0,-1.38999 0,-2.09022 0,-2.98901 -0.17766,-5.94668 -1.32728,-8.36088 l -0.88835,-1.8185 1.18098,-1.64082 a 8.1518606,8.1518606 0 0 0 1.32729,-4.90157 37.864348,37.864348 0 0 0 -0.52256,-5.34051 l -0.56436,-4.84931 c 0,0 0.84655,-2.34105 1.04512,-2.99946 0,-0.50166 0.0522,-1.04513 0.0522,-1.51543 a 57.731895,57.731895 0 0 0 -0.5539,-6.89771 59.85347,59.85347 0 0 1 -0.56436,-7.02315 22.992428,22.992428 0 0 1 0.74203,-5.83171 l -0.21948,-3.48021 a 10.001706,10.001706 0 0 0 -0.43894,-3.50113 2.7068358,2.7068358 0 0 0 -1.79759,0.42849 l -1.77669,2.09022 -2.40375,-1.29593 a 11.193132,11.193132 0 0 0 -4.78661,-0.86745 l -1.91255,-0.15678 -1.10782,0.91971 -0.35533,0.1672 a 6.4065264,6.4065264 0 0 1 -6.33337,-0.58526 9.405993,9.405993 0 0 1 -2.48737,0.17769 17.599658,17.599658 0 0 0 -0.40759,3.0308 c 0,0.98241 0.0627,1.98572 0.11496,3.04128 0.0523,1.05555 0.12541,2.21564 0.12541,3.40706 a 25.333475,25.333475 0 0 1 -0.48074,4.61938 58.045428,58.045428 0 0 1 0.59571,7.65021 c 0,1.95435 -0.0627,3.85645 -0.13587,5.73766 -0.0731,1.8812 -0.12541,3.66833 -0.12541,5.45546 a 43.967792,43.967792 0 0 0 0.85699,9.25969 v 0.97195 l -0.38669,3.74149 c -0.15677,2.98902 -0.39714,6.66782 -3.313,9.3015 0.0627,-0.0627 0.13586,-0.0941 0.19857,-0.15679 l -0.41805,0.41804 c 0.0941,-0.0836 0.12541,-0.17767 0.21948,-0.26127 -1.93346,2.09021 -4.55668,2.30968 -7.85923,0.48076 l -0.50165,-0.28219 0.32398,0.14623 c -4.47308,-1.59902 -5.22555,-6.1766 -5.62269,-8.6326 l -0.21948,-1.29595 0.16722,-0.67932 a 0.74202834,0.74202834 0 0 0 0,-0.21947 6.7409618,6.7409618 0 0 0 -0.48076,-1.8185 11.203582,11.203582 0 0 1 -0.77337,-3.66833 6.2706621,6.2706621 0 0 1 0.71067,-2.68594 34.248265,34.248265 0 0 0 0.43895,-5.22555 34.749919,34.749919 0 0 0 -0.4703,-5.67495 l -0.17767,-1.11827 0.52256,-1.0451 a 6.1766023,6.1766023 0 0 0 0.35533,-2.55007 c 0,-0.59571 0,-1.20188 0,-1.76624 0,0 0,-1.3064 0,-2.22609 a 13.210194,13.210194 0 0 1 -1.4318,-5.84216 32.973231,32.973231 0 0 1 0.55391,-5.22556 26.775727,26.775727 0 0 0 0.4703,-4.18044 6.8872772,6.8872772 0 0 0 -0.4703,-2.48736 8.6535138,8.6535138 0 0 0 -3.50112,0.73159 l -1.42135,0.61659 -1.38999,-0.66886 c -2.18429,-1.0451 -6.39608,-2.49781 -10.09578,-0.41803 l -0.5121,0.29261 -0.57481,0.10448 a 10.242081,10.242081 0 0 1 -4.92247,-0.49119 8.1309586,8.1309586 0 0 0 -0.26127,2.20519 c 0,0.94059 0.0836,1.93345 0.13585,2.80089 0,0 0.0627,0.9406 0.0836,1.54676 a 10.618321,10.618321 0 0 1 1.04512,4.37901 23.190999,23.190999 0 0 1 -0.60616,4.62985 18.205823,18.205823 0 0 0 -0.49121,3.45931 5.2882584,5.2882584 0 0 0 0.35534,1.93346 l 0.28218,0.60615 -0.17767,6.27067 c -0.0836,2.30969 -0.16721,4.64029 -0.16721,6.93954 a 45.702677,45.702677 0 0 0 0.91969,10.15846 l 0.21948,0.9615 -0.32399,0.91971 a 6.7409618,6.7409618 0 0 0 -0.34488,2.24698 22.867016,22.867016 0 0 0 0.93014,5.35096 c 0,0 0.4703,2.3097 0.77338,3.83557 a 15.676655,15.676655 0 0 1 4.02367,7.03358 c 1.04512,3.02037 1.51542,4.18045 3.26075,4.69255 a 15.039138,15.039138 0 0 1 5.89442,2.57096 c 2.02752,1.3064 2.96812,1.80805 4.10729,1.54678 l 1.27503,-0.31355 1.13917,0.63753 c 1.51541,0.82564 3.69969,0.65841 5.99893,0.44939 l 2.09022,-0.12546 a 13.492374,13.492374 0 0 0 2.96812,-1.35863 c 2.4142,-1.32729 5.40322,-2.97858 9.30148,-2.02753 l 1.45271,0.3449 0.72112,1.31683 c 0.65842,1.19144 2.09022,1.39 5.06879,1.52587 l 1.82894,0.13585 0.61661,-0.11491 a 10.89005,10.89005 0 0 1 3.95052,-0.35534 l 1.56767,0.1672 c 3.78329,0.4076 7.92193,0.71068 10.77508,-0.80473 -0.10448,-2.20519 -1.33774,-4.3163 -2.80089,-6.67825 z m 68.83097,-58.8397 a 36.693825,36.693825 0 0 0 -0.57481,-6.0303 13.220646,13.220646 0 0 1 -5.94667,0.41805 c -2.21564,-0.25082 -2.66504,-0.18813 -3.21896,0.42849 l -2.55005,2.90541 c 0,0 -2.00662,-2.29924 -2.34106,-2.69637 h -0.77338 a 8.5176493,8.5176493 0 0 1 -4.44172,-0.82566 c -0.74202,0 -1.50496,0 -1.50496,0 -1.0451,0 -1.57811,-0.0523 -1.8603,0.15679 l -0.77337,0.55392 -0.93015,0.0731 a 43.769222,43.769222 0 0 1 -11.49622,-1.0451 12.300949,12.300949 0 0 1 -9.56275,0.22993 8.0682519,8.0682519 0 0 0 -4.46262,0.31352 c -0.0731,2.3306 -0.22993,7.31577 -0.22993,7.39938 a 12.948917,12.948917 0 0 1 0.21947,2.00662 33.777967,33.777967 0 0 1 -0.27173,3.66833 25.720165,25.720165 0 0 0 -0.22993,2.94722 2.5291671,2.5291671 0 0 0 0.45987,1.71396 5.1001386,5.1001386 0 0 1 1.4318,0 13.92087,13.92087 0 0 1 5.57042,-0.21946 l 2.56053,0.24037 0.63753,0.38669 c 3.13533,1.82895 3.57426,4.83887 3.57426,7.19036 0,0.54347 0,1.04511 0,1.48406 0,0.43895 -0.0523,0.86745 -0.0523,1.30639 a 3.135331,3.135331 0 0 0 0.19858,1.3691 l 0.87789,1.35863 -0.52255,1.54677 a 13.513277,13.513277 0 0 0 -0.64798,4.3372 43.894634,43.894634 0 0 0 0.53302,5.69587 49.308307,49.308307 0 0 1 0.57481,6.52148 19.857097,19.857097 0 0 1 -1.17053,6.5842 22.198143,22.198143 0 0 1 0.55391,4.73434 51.032738,51.032738 0 0 1 -0.44939,5.86308 44.939745,44.939745 0 0 0 -0.4076,5.11058 14.631545,14.631545 0 0 0 0.5121,3.7415 11.067719,11.067719 0 0 0 2.51871,0.16721 l 0.56436,-0.19857 a 6.6991574,6.6991574 0 0 1 5.22556,-0.21947 l 2.78,0.22993 c 1.87074,0.29263 2.58141,0.34488 3.22939,-0.0941 3.3966,-2.43511 6.50059,-1.04511 8.17276,-0.22992 l 0.44939,0.17765 a 5.2255517,5.2255517 0 0 0 0.18812,-0.77337 7.8069742,7.8069742 0 0 0 -0.57481,-2.78 l -0.27173,-0.64797 0.15679,-4.12817 c 0.0941,-2.23655 0.19856,-4.51489 0.19856,-6.76187 a 44.678467,44.678467 0 0 0 -0.65841,-8.28772 l -0.24038,-1.23324 0.63753,-1.0451 a 4.4312679,4.4312679 0 0 0 0.4703,-2.16338 21.947317,21.947317 0 0 0 -0.35534,-3.25029 26.692118,26.692118 0 0 1 -0.42851,-4.1282 10.597419,10.597419 0 0 1 0.0732,-1.28548 v -0.35533 l 0.10448,-0.33443 a 8.9461446,8.9461446 0 0 0 0.39713,-2.82181 28.667377,28.667377 0 0 0 -0.25081,-3.29209 36.014502,36.014502 0 0 1 -0.28219,-3.94008 13.377413,13.377413 0 0 1 1.24369,-5.91532 c 2.68593,-6.12434 7.92194,-5.03742 10.4511,-4.50442 a 5.7481069,5.7481069 0 0 0 2.58142,0.17767 11.611176,11.611176 0 0 0 -0.45984,-2.32016 l -0.58527,-2.15291 0.41804,-1.04511 a 17.160713,17.160713 0 0 0 1.04513,-6.27066 m -149.30422,22.67903 v -0.99286 c 0,-0.18811 0,-0.37624 0,-0.54345 a 15.760264,15.760264 0 0 0 -6.50059,-13.14749 l -0.82564,-0.58526 -0.36578,-0.95105 c -0.86744,-2.22608 -2.86361,-3.79374 -5.16285,-5.60178 l -1.04511,-0.82564 a 13.910419,13.910419 0 0 1 -5.35097,-2.87407 c -1.64082,-1.28548 -2.46645,-1.83939 -3.40705,-1.75578 l -1.2646,0.11491 -1.0451,-0.74203 c -3.54292,-2.58142 -9.19697,-2.53962 -14.1926,-2.51872 h -2.18428 l -0.53301,-0.17765 c -0.64796,-0.20904 -1.22278,0 -2.68593,0.62707 a 12.478617,12.478617 0 0 1 -5.07923,1.32727 23.410471,23.410471 0 0 1 -6.59465,2.81135 14.318011,14.318011 0 0 0 -4.72391,1.93346 13.084781,13.084781 0 0 1 -5.7481,5.76901 c -1.9439,1.13916 -2.74864,1.70353 -3.04127,2.78 l -0.38669,1.43179 -1.32729,0.68977 c -0.41804,0.20902 -0.679322,0.85699 -1.160073,2.18429 a 13.408766,13.408766 0 0 1 -2.487362,4.2954 c -0.250827,0.87789 -2.090222,7.12765 -2.26789,7.86968 0,0.857 0,4.18044 0,4.18044 0,1.35865 -0.06271,2.71728 -0.06271,4.08638 0,5.60179 0.533007,11.01546 3.793751,14.79877 l 0.438946,0.4912 0.209022,0.63751 c 1.222776,3.65789 4.870216,12.36365 12.175536,14.35983 l 1.04511,0.28217 0.66887,0.77338 c 2.17383,2.51871 5.85262,3.3339 9.40599,4.10729 0,0 1.73488,0.39713 1.97526,0.4703 l 1.67218,0.0836 a 10.127119,10.127119 0 0 1 4.36856,0.81518 c 5.93622,0.71067 14.27621,1.11827 19.4913,-3.13533 l 0.9406,-0.75247 h 1.17053 a 6.2706621,6.2706621 0 0 0 2.71728,-1.10782 l 3.03082,-1.4527 -0.533,0.22992 c 2.81135,-1.56766 4.7657,-4.18044 6.83502,-6.87683 a 35.878637,35.878637 0 0 1 6.6469,-7.23215 c 0.68978,-0.49121 0.8361,-1.57812 0.98241,-3.78331 0.14631,-2.20519 0.43894,-5.10013 2.3515,-7.45164 0,-1.13916 0.10448,-2.62322 0.10448,-2.62322 0.0731,-1.38999 0.14632,-2.68594 0.14632,-3.91915 a 13.377413,13.377413 0 0 0 -1.67217,-7.26353 z"
     id="path24"
     style="fill:#b44921;fill-opacity:1;stroke-width:1.04511046"
     inkscape:connector-curvature="0"
     inkscape:export-filename="C:\Users\suitedoalex\sites\outback-logo-4.png"
     inkscape:export-xdpi="69.574913"
     inkscape:export-ydpi="69.574913" />
  <path
     class="cls-1"
     d="m 76.546356,297.7563 c 0,-0.28219 1.04511,-0.97195 2.309695,-1.54676 1.264589,-0.57481 3.250289,-1.51542 4.389459,-2.09023 1.13917,-0.57481 2.96812,-1.38999 4.05503,-1.83938 1.08692,-0.44942 2.79045,-1.17054 3.8042,-1.61993 1.01376,-0.44939 3.30255,-1.37954 5.07924,-2.09023 1.77669,-0.71068 4.54623,-1.73487 6.1348,-2.30968 1.58856,-0.57482 3.98187,-1.40046 5.30916,-1.84985 1.32729,-0.44939 3.41751,-1.0451 4.61939,-1.38999 1.20187,-0.34488 3.90871,-1.09737 6.00938,-1.72444 2.10067,-0.62707 5.01653,-1.42134 6.46923,-1.74533 1.4527,-0.32399 3.90872,-0.72112 5.43458,-0.9197 1.52585,-0.19857 3.97142,-0.43894 5.42412,-0.57481 1.45271,-0.13585 3.23984,-0.33443 3.92962,-0.45984 0.68976,-0.12547 1.74533,-0.28219 2.32014,-0.35534 0.57482,-0.0733 3.13533,-0.4703 12.66673,-0.91972 9.53141,-0.44939 18.16403,-0.90923 19.17779,-1.0451 l 3.92961,-0.45984 c 1.13917,-0.13585 4.18044,-0.34489 6.69915,-0.45985 2.51873,-0.11491 5.65405,-0.24038 6.92909,-0.24038 1.27503,0 3.30255,0 4.50443,0.11492 1.20187,0.11491 3.08307,0.21947 4.18044,0.34488 1.09736,0.12547 2.74864,0.39715 3.69968,0.58526 0.95105,0.18814 1.8394,0.76294 1.96481,1.27503 a 9.0611068,9.0611068 0 0 0 0.58526,1.60947 c 0.18813,0.37625 0.49121,0.95105 0.68978,1.27503 a 12.781699,12.781699 0 0 0 0.80473,1.14963 9.1029112,9.1029112 0 0 0 1.61992,1.39 c 0.63752,0.43895 1.82895,1.22277 2.65458,1.73489 a 3.135331,3.135331 0 0 0 2.20519,0.5748 6.2706621,6.2706621 0 0 1 1.4945,-0.4703 c 0.43895,-0.0627 1.22278,-0.16721 1.72444,-0.21947 a 9.9076461,9.9076461 0 0 0 1.8603,-0.4703 c 0.50164,-0.18812 2.09022,-0.85699 3.57427,-1.50496 1.48405,-0.64795 3.3339,-1.45271 4.18044,-1.83939 a 17.766875,17.766875 0 0 1 3.23984,-1.04511 c 0.95106,-0.18811 2.40376,0.75248 3.2294,2.09022 a 4.9120186,4.9120186 0 0 0 3.69968,3.35481 l 2.76954,0.80473 c 1.04513,0.32399 2.85315,0.79429 3.92962,1.04511 1.07647,0.25081 2.38287,0.61661 2.89495,0.80474 0.51211,0.18811 1.23323,0.51211 1.61993,0.70022 a 1.6303721,1.6303721 0 0 0 1.4945,-0.24038 19.000106,19.000106 0 0 1 1.73488,-1.0451 10.451103,10.451103 0 0 1 1.96482,-0.68979 4.243148,4.243148 0 0 1 1.84984,0 c 0.44941,0.12547 0.80475,-0.0836 0.80475,-0.4703 a 6.6678041,6.6678041 0 0 1 0.22992,-1.4945 c 0.13585,-0.44939 0.34488,-1.18097 0.47029,-1.61992 a 6.2706621,6.2706621 0 0 1 0.68978,-1.50496 c 0.25082,-0.37623 0.61661,-0.8988 0.80473,-1.16008 a 4.45217,4.45217 0 0 1 0.93015,-0.80473 c 0.31353,-0.18811 1.14962,-0.60617 1.84985,-0.91969 a 25.918738,25.918738 0 0 1 2.76953,-1.0451 c 0.82564,-0.25084 2.28879,-0.66888 3.23985,-0.91972 0.95105,-0.25082 3.23984,-0.82562 5.07923,-1.27502 a 42.985388,42.985388 0 0 0 4.73435,-1.37955 c 0.76293,-0.32398 1.91256,-0.84655 2.55007,-1.16007 a 16.241015,16.241015 0 0 0 3.3757,-4.24316 c 1.27506,-2.03796 2.93678,-3.54291 3.69969,-3.34435 l 2.65459,0.68977 a 34.749919,34.749919 0 0 1 3.46976,1.26459 c 1.21233,0.51212 3.08309,1.40045 4.18046,1.96481 1.09734,0.56436 2.84269,1.40045 3.9296,1.84984 a 26.336781,26.336781 0 0 0 3.45932,1.16007 c 0.83608,0.18813 2.09023,0.44941 2.77999,0.57482 0.68977,0.12547 1.8394,0.33443 2.53962,0.45985 a 14.380718,14.380718 0 0 1 2.42466,0.70022 2.9890156,2.9890156 0 0 0 2.30969,-0.22993 c 0.63751,-0.38669 1.63038,-0.95104 2.19473,-1.27502 0.56436,-0.324 1.4527,-0.88835 1.96481,-1.2646 0.51209,-0.37623 1.24367,-0.96149 1.61992,-1.27502 a 14.474778,14.474778 0 0 0 1.37955,-1.39001 17.641463,17.641463 0 0 0 1.27503,-1.73487 19.303187,19.303187 0 0 0 1.04511,-1.95436 20.034764,20.034764 0 0 0 0.80474,-2.32015 2.5396182,2.5396182 0 0 1 1.61991,-1.60946 c 0.70022,-0.19858 1.89166,-0.45987 2.65459,-0.58526 0.76294,-0.12546 2.73818,-0.3867 4.38947,-0.57482 1.65127,-0.18811 4.4626,-0.44939 6.27065,-0.58526 1.80804,-0.13585 4.79707,-0.22993 6.69916,-0.22993 1.9021,0 5.08968,0.0523 7.0545,0.12547 1.96481,0.0731 5.08969,0.26128 6.93953,0.45984 1.84985,0.19859 4.7448,0.43896 6.45877,0.57481 1.71399,0.13585 4.42084,0.43896 6.00939,0.70024 a 63.427747,63.427747 0 0 1 7.31579,1.83938 15.143649,15.143649 0 0 1 6.58419,4.38947 c 1.20188,1.65127 5.22554,0.35534 8.88343,-2.8845 3.65788,-3.23985 10.25253,-5.89442 14.56883,-5.89442 4.31632,0 11.75751,-2.2888 16.51275,-5.08971 4.75524,-2.80088 11.89336,-4.56712 15.83342,-3.91915 3.94007,0.64796 11.06772,1.5154 15.83342,1.9648 a 58.348511,58.348511 0 0 1 13.36696,2.81135 66.416762,66.416762 0 0 1 11.43352,7.04404 10.566066,10.566066 0 0 0 13.05342,-0.80473 c 3.50112,-3.23984 9.74043,-5.00608 13.85817,-3.92961 a 35.126159,35.126159 0 0 1 13.40876,7.85922 c 3.23984,3.23984 7.04405,6.093 8.43404,6.35429 a 30.548576,30.548576 0 0 0 3.3548,0.45984 9.8762929,9.8762929 0 0 1 1.84986,0.24038 15.676655,15.676655 0 0 1 1.73487,0.45984 5.4868294,5.4868294 0 0 0 0.80475,0.21947 c 0.0627,0 0.78382,0.16723 1.61991,0.35534 a 24.779565,24.779565 0 0 0 2.99946,0.45985 9.5418574,9.5418574 0 0 1 2.76955,0.70021 14.453876,14.453876 0 0 1 2.30969,1.31685 25.490242,25.490242 0 0 1 2.09023,1.73489 14.182148,14.182148 0 0 0 2.09021,1.61993 c 0.60617,0.34488 2.84272,1.33772 4.97474,2.19471 2.13201,0.85699 5.22554,2.26789 6.98133,3.13533 a 40.351711,40.351711 0 0 0 4.18045,1.84986 17.766875,17.766875 0 0 0 2.19473,0.39713 7.7338165,7.7338165 0 0 0 2.25743,-0.16721 12.21734,12.21734 0 0 1 1.73487,-0.34488 2.9576623,2.9576623 0 0 1 1.14963,0.11491 c 0.29263,0.0941 1.64083,0.71068 3.00992,1.37954 1.36909,0.66888 3.62654,1.63038 5.01654,2.14247 a 37.456755,37.456755 0 0 0 5.54953,1.39 c 1.65127,0.25084 3.06216,0.44941 3.13533,0.44941 0.0731,0 0.83609,0.21946 1.73487,0.45984 a 6.6991574,6.6991574 0 0 1 2.09023,0.93016 7.7860721,7.7860721 0 0 0 3.13533,0.5748 38.669083,38.669083 0 0 1 5.30917,0.70023 c 1.45269,0.31352 0.9197,0.99285 2.28878,1.49451 a 7.9532898,7.9532898 0 0 0 4.04459,0.4703 17.118908,17.118908 0 0 1 3.06216,-0.57483 17.32793,17.32793 0 0 1 3.13534,0.10448 16.19921,16.19921 0 0 1 3.13533,0.81519 10.60787,10.60787 0 0 1 2.60231,1.60946 6.145249,6.145249 0 0 1 1.43182,1.72443 c 0.14624,0.37625 0.29262,0.79429 0.33443,0.93016 a 1.3690946,1.3690946 0 0 1 -0.16722,0.70021 l -0.18812,0.22994 -0.20903,0.21947 a 4.7029966,4.7029966 0 0 1 -2.23652,0.45985 h -3.55337 c -0.8779,0 -1.7558,-0.4494 -2.6128,-0.45985 h -0.84653 a 11.8411,11.8411 0 0 1 -2.30968,0.30308 h -0.37625 c -0.37624,0 -0.78384,0 -1.17051,0 -0.3867,0 -0.76294,-0.33443 -1.04513,-0.29263 h -0.29263 a 43.131705,43.131705 0 0 1 -5.67494,0.50165 h -4.18045 -12.54132 l -12.66673,-0.0627 c -4.18046,0 -8.45495,0.37624 -12.66674,0.34489 -3.66834,0 -7.44119,-0.45985 -11.29765,-0.44939 h -11.59026 -15.25862 c -3.92962,-0.0836 -8.51766,-0.19859 -10.18983,-0.27174 -1.67218,-0.0731 -4.41036,0 -6.08254,0.0627 -1.67217,0.0627 -4.39991,0.19856 -6.07209,0.20902 l -6.08254,0.0627 c -1.66174,0 -4.47309,0 -6.27067,0 h -1.55722 c -1.55721,0 -3.13533,0 -4.66118,0 h -4.703 c -1.58857,0 -3.19803,-0.30307 -4.83885,-0.29262 -4.04459,0.0731 -8.00556,0.41803 -11.94562,0.41803 -3.94006,0 -7.84879,0 -11.73659,-0.0627 l -11.68433,-0.10448 c -3.91916,0 -7.85924,-0.94061 -11.80976,-0.94061 -3.37571,0.0523 -6.75141,0.97196 -10.14801,0.97196 -3.39661,0 -6.80367,0 -10.20028,0 h -10.15847 q -5.0688,0 -10.06441,0 h -2.09023 c -1.31684,-0.9824 -4.06548,-1.04511 -6.11389,-0.11492 l -5.5391,-0.0627 c -2.29922,0 -4.55668,0 -6.80365,0 h -2.23654 c -2.40375,0 -4.51489,0 -4.68209,0 h -0.93016 c -0.34488,0 -0.76292,0.0523 -0.93014,0.0523 h -3.96097 c -2.01706,0 -5.29871,0.0627 -7.31577,0.15679 -2.01706,0.0941 -5.28827,0.0941 -7.31577,0 -2.02751,-0.0941 -5.28826,-0.15679 -7.31577,-0.14624 -2.02752,0.01 -3.54294,-0.25082 -3.41752,-0.56435 a 1.6512742,1.6512742 0 0 0 0.11492,-0.90924 c -0.0627,-0.19858 -0.45986,0 -0.88834,0.533 a 5.6644981,5.6644981 0 0 1 -0.99286,0.9615 22.511676,22.511676 0 0 1 -2.85315,0 h -1.39 c -1.38999,0 -2.81134,0.0523 -4.18044,0.0627 -1.36911,0.01 -2.81136,-0.17768 -4.18045,-0.15678 h -1.35864 a 54.439797,54.439797 0 0 1 -8.85208,-0.62708 l -3.22939,-0.0523 c -3.21895,-0.0523 -6.51104,0.61661 -9.78224,0.59571 -3.2712,-0.021 -6.54238,0 -9.82403,0 h -3.2712 -6.59464 -0.16723 -0.15678 -0.15679 a 3.8564572,3.8564572 0 0 1 -0.61662,-0.63751 h -0.49121 c -0.55389,0 -1.67217,0.72112 -2.23652,0.71067 h -1.71399 c -0.5748,0 -1.16007,0 -1.76624,0 -3.54293,0.0941 -7.1799,-0.18811 -10.84824,-0.17766 -3.66833,0.01 -7.31577,0.30307 -10.96322,0.28217 -3.64742,-0.021 -4.09683,1.42134 -7.56659,1.42134 -3.46976,0 -6.80366,0 -9.94945,0.10449 q -3.52202,0.0627 -7.04405,0.0731 -3.52201,0.01 -7.06493,0 c -2.3515,0 -7.81743,-1.50497 -10.17939,-1.53632 h -2.36185 l -4.79705,-0.10448 a 0.39714193,0.39714193 0 0 0 -0.10448,0 h -0.11497 -0.11496 l -1.4318,0.45985 h -0.66888 c -2.84269,0 -3.53247,-0.39715 -2.09022,-0.39715 h -4.56713 c -4.44171,0.10448 -8.85209,-0.24037 -13.252,-0.19857 -4.39992,0.0419 -6.67826,1.60947 -11.09907,1.61992 -4.42082,0.01 -5.22555,-1.09737 -9.77178,-1.0451 h -4.49397 c -5.04789,-0.21948 -9.25968,-0.4076 -9.406,-0.42851 l -0.36578,-0.0627 -0.36579,-0.0627 -0.3658,-0.0731 a 0.83608828,0.83608828 0 0 0 -0.27173,0 h -0.28217 -0.28218 l -0.83609,0.10448 h -0.43895 l -1.36909,0.0523 c -0.4703,0 -0.9406,-0.29263 -1.40045,-0.30308 h -0.45985 a 63.960754,63.960754 0 0 1 -6.67825,0.72112 h -2.87408 -8.51765 c -2.81135,0 -5.62269,0.29264 -8.42359,0.3031 -2.8009,0.01 -5.60179,-0.29264 -8.36089,-0.25084 -1.49451,0 -3.13532,0 -4.70299,0 -1.56766,0 -3.26074,-0.36578 -4.84931,-0.36578 -1.58857,0 -3.13534,0.39715 -4.53578,0.33443 l -1.4109,-0.0731 a 5.8735201,5.8735201 0 0 1 -2.393303,-0.61662 c 0,-0.16721 0,-0.53301 0,-0.80473 v -1.04511"
     id="path26"
     style="fill:#b44921;fill-opacity:1;stroke-width:1.04511046"
     inkscape:connector-curvature="0"
     inkscape:export-filename="C:\Users\suitedoalex\sites\outback-logo-4.png"
     inkscape:export-xdpi="69.574913"
     inkscape:export-ydpi="69.574913" />
  <path
     class="cls-2"
     d="m 189.73181,446.02611 c 3.3548,1.86029 7.42028,3.06216 11.49621,1.94391 a 8.2981762,8.2981762 0 0 0 3.90872,-4.29542 4.7761543,4.7761543 0 0 0 -2.58143,-5.43456 c -3.99232,-1.78716 -9.53141,-2.18429 -11.25584,-7.21126 a 11.496214,11.496214 0 0 1 1.25413,-5.43458 c 3.66835,-2.74864 8.74758,-2.90541 12.96983,-1.36911 1.17052,0.88836 0.62707,2.60235 0.38668,3.73105 -3.04126,-0.98241 -6.87682,-2.67548 -9.91809,-0.57481 a 2.8636023,2.8636023 0 0 0 -1.17053,3.88783 c 4.7657,3.73104 15.31087,3.57426 13.51328,13.05341 -0.62707,3.8042 -4.36856,6.15571 -7.65021,6.97089 a 15.185453,15.185453 0 0 1 -11.09906,-2.09023 c -0.22993,-0.98239 -0.4703,-2.35149 0.15676,-3.13533"
     id="path28"
     style="fill:#b44921;fill-opacity:1;stroke-width:1.04511046"
     inkscape:connector-curvature="0"
     inkscape:export-filename="C:\Users\suitedoalex\sites\outback-logo-4.png"
     inkscape:export-xdpi="69.574913"
     inkscape:export-ydpi="69.574913" />
  <path
     class="cls-2"
     d="m 219.73693,423.49352 c 5.77946,-0.72113 10.70193,0.57482 16.16785,0.4076 a 3.135331,3.135331 0 0 1 0.39714,2.67548 c -2.65457,0.88834 -6.27065,-1.13918 -7.50389,1.77669 l -0.38669,22.77295 c -0.86744,0.32399 -2.43511,0.32399 -2.65457,-0.81518 v -23.1701 l -0.55391,-0.56436 h -6.72006 c -0.62707,-0.9824 -0.78383,-3.80421 1.25413,-3.13533"
     id="path30"
     style="fill:#b44921;fill-opacity:1;stroke-width:1.04511046"
     inkscape:connector-curvature="0"
     inkscape:export-filename="C:\Users\suitedoalex\sites\outback-logo-4.png"
     inkscape:export-xdpi="69.574913"
     inkscape:export-ydpi="69.574913" />
  <path
     class="cls-2"
     d="m 248.25799,424.06834 c 5.46592,-0.57482 10.07486,0.31353 15.54079,0 0.62706,0.64796 0.39714,1.69307 0.62706,2.50826 l -0.62706,0.39713 -12.21734,0.16723 c -1.04511,2.18429 -1.04511,5.84216 0.38669,7.78607 a 63.500904,63.500904 0 0 1 11.7993,-0.1672 c 0.71068,0.56435 0.31352,1.70351 0.39713,2.51871 l -0.5539,0.39713 c -4.36856,0.8152 -8.27727,-0.80473 -12.34275,0.56437 -0.93016,2.99946 0.15679,5.92576 -0.24037,9.32238 1.4945,1.4527 4.07592,0.48075 5.63314,0.97195 l 0.93014,-0.32398 6.17661,0.15679 c 1.04511,0.64797 0.54345,2.02751 0.39713,2.92631 a 153.08777,153.08777 0 0 1 -16.0947,0 c 0.61662,-9.56275 -0.4703,-17.42199 0.15679,-27.17287"
     id="path32"
     style="fill:#b44921;fill-opacity:1;stroke-width:1.04511046"
     inkscape:connector-curvature="0"
     inkscape:export-filename="C:\Users\suitedoalex\sites\outback-logo-4.png"
     inkscape:export-xdpi="69.574913"
     inkscape:export-ydpi="69.574913" />
  <path
     class="cls-2"
     d="m 290.25051,436.29613 c -1.56766,-0.16722 -3.13533,0.25083 -4.68209,-0.56437 0.70023,-2.35149 1.4109,-5.11058 2.95768,-6.80367 0.86742,2.2679 2.19471,4.28495 2.42464,6.80367 z m 9.91812,13.58643 c -3.43843,-8.84164 -6.55286,-17.82958 -10.45111,-26.42038 -1.04512,-0.15679 -2.66503,-0.64797 -3.43842,0.40758 -3.28163,8.98795 -6.56329,18.06997 -9.69862,27.17287 0.4703,1.04511 1.41089,0.24038 2.43511,0.56435 2.41421,-3.80419 2.58141,-8.66395 5.62269,-12.07101 l 8.03689,0.16721 c 2.3515,3.56384 2.90542,7.84879 4.84932,11.49623 l 1.71397,0.1672 c 0.857,0.0836 1.04513,-0.72112 0.94062,-1.53631"
     id="path34"
     style="fill:#b44921;fill-opacity:1;stroke-width:1.04511046"
     inkscape:connector-curvature="0"
     inkscape:export-filename="C:\Users\suitedoalex\sites\outback-logo-4.png"
     inkscape:export-xdpi="69.574913"
     inkscape:export-ydpi="69.574913" />
  <path
     class="cls-2"
     d="m 314.43438,424.21465 c 0.78382,0.25082 2.58142,-1.29594 2.65458,0.63752 0.31353,3.40706 -0.70022,6.98134 0.15678,9.8972 h 0.95105 c 3.81465,-3.73105 7.02313,-6.88729 10.69149,-10.53472 l 3.59517,0.25082 v 0.72113 c -3.90872,3.97142 -8.27727,7.21126 -11.49623,11.49623 3.05174,5.22554 8.20413,9.71952 10.94231,14.98688 a 4.0236749,4.0236749 0 0 1 -3.59517,0 c -3.13533,-4.703 -7.03359,-9.07157 -10.4511,-13.58644 -1.04512,-0.32398 -0.93015,0.80473 -1.17053,1.37953 l -0.38669,11.98743 c -0.78382,0.24038 -2.19473,0.49121 -2.58141,-0.32399 -0.22993,-9.15516 0.38668,-17.76688 0.70022,-26.90115"
     id="path36"
     style="fill:#b44921;fill-opacity:1;stroke-width:1.04511046"
     inkscape:connector-curvature="0"
     inkscape:export-filename="C:\Users\suitedoalex\sites\outback-logo-4.png"
     inkscape:export-xdpi="69.574913"
     inkscape:export-ydpi="69.574913" />
  <path
     class="cls-2"
     d="m 346.16393,424.06834 c 0.45984,-0.74203 1.40044,-0.25082 2.02751,-0.4076 1.88119,3.08307 -0.4703,7.61886 1.32729,10.93186 4.18044,0.56436 8.13096,-0.32398 12.42635,0 l 0.94062,-1.21233 c 0.22992,-3.32344 0.0836,-5.67495 0.14623,-8.90434 0.71068,-0.40759 1.64084,-0.89879 2.42466,-0.40759 0.86745,9.63591 0,17.49514 0,27.0579 a 6.4692331,6.4692331 0 0 1 -2.26788,0.32399 l -0.533,-0.73157 a 62.340833,62.340833 0 0 0 -0.16722,-12.63539 c -4.05503,-0.64797 -8.51766,-0.4076 -12.96982,-0.25083 l -0.74203,1.01377 -0.38669,12.31138 c -0.54346,0.64797 -1.4736,0.24038 -2.25745,0.32398 l -0.38669,-0.73158 c -0.1672,-9.97034 0.21948,-18.22671 0.38669,-26.65031"
     id="path38"
     style="fill:#b44921;fill-opacity:1;stroke-width:1.04511046"
     inkscape:connector-curvature="0"
     inkscape:export-filename="C:\Users\suitedoalex\sites\outback-logo-4.png"
     inkscape:export-xdpi="69.574913"
     inkscape:export-ydpi="69.574913" />
  <path
     class="cls-2"
     d="m 399.61087,440.7483 c -1.32729,3.49067 -4.37902,6.97088 -8.28773,7.46209 -3.3548,0 -6.72006,-0.49121 -8.74756,-3.32346 a 12.436814,12.436814 0 0 1 -1.88121,-11.10952 11.088621,11.088621 0 0 1 4.45216,-6.27066 c 3.44888,-2.09022 7.58751,-1.04511 10.86916,0.56435 3.19804,3.40707 4.92247,7.85924 3.59518,12.63539 m -0.93014,-14.73604 c -4.38948,-3.5743 -9.78225,-3.80422 -14.85103,-1.53632 -3.76239,1.93345 -5.86307,5.98848 -6.73051,9.88673 -1.04511,6.07211 1.04512,12.06058 6.1766,15.55125 4.18045,1.69308 9.84495,2.74864 13.6805,-0.16722 a 15.875226,15.875226 0 0 0 6.27066,-10.53471 16.18876,16.18876 0 0 0 -4.52534,-13.19973"
     id="path40"
     style="fill:#b44921;fill-opacity:1;stroke-width:1.04511046"
     inkscape:connector-curvature="0"
     inkscape:export-filename="C:\Users\suitedoalex\sites\outback-logo-4.png"
     inkscape:export-xdpi="69.574913"
     inkscape:export-ydpi="69.574913" />
  <path
     class="cls-2"
     d="m 416.33264,423.66074 c 0.54344,-0.88835 1.25412,0.15679 2.09021,-0.16722 l 0.53302,0.73157 0.24037,18.88515 a 6.5737441,6.5737441 0 0 0 3.51158,4.28495 c 1.17051,1.12872 2.58141,-0.15679 3.75193,0.97196 2.7382,-0.73158 5.63316,-2.34104 6.41698,-5.41368 l 0.14624,-19.29273 c 0.5539,-0.64798 1.64082,-0.39714 2.26788,-0.16722 l 0.54345,0.98241 -0.15678,19.19867 c -0.22992,2.98901 -2.8009,5.91532 -5.46594,7.04406 -4.18044,1.78713 -8.91479,0.32397 -12.17553,-2.50827 a 11.328996,11.328996 0 0 1 -2.09021,-5.50775 z"
     id="path42"
     style="fill:#b44921;fill-opacity:1;stroke-width:1.04511046"
     inkscape:connector-curvature="0"
     inkscape:export-filename="C:\Users\suitedoalex\sites\outback-logo-4.png"
     inkscape:export-xdpi="69.574913"
     inkscape:export-ydpi="69.574913" />
  <path
     class="cls-2"
     d="m 449.10729,445.84843 c 3.66833,1.78714 8.20413,3.2503 12.19643,0.98241 a 5.7481069,5.7481069 0 0 0 2.57098,-6.08254 c -3.44885,-5.90488 -16.40822,-3.23984 -12.89667,-13.77457 1.49452,-2.74864 4.45218,-3.80419 7.26353,-4.04456 2.26789,0.39714 5.00607,0.24037 6.57374,1.93345 l -0.1672,2.68594 c -2.73821,-0.72112 -6.63646,-2.02753 -9.60458,-0.4076 -1.7976,0.81518 -1.17053,2.99946 -0.55391,4.2954 4.2954,3.2503 12.90713,3.13533 12.42637,10.94231 a 8.7162203,8.7162203 0 0 1 -4.91202,7.93239 c -3.83557,2.09023 -9.30148,1.22278 -12.89667,-0.80473 0,-1.21233 -0.85699,-2.51872 0,-3.6579"
     id="path44"
     style="fill:#b44921;fill-opacity:1;stroke-width:1.04511046"
     inkscape:connector-curvature="0"
     inkscape:export-filename="C:\Users\suitedoalex\sites\outback-logo-4.png"
     inkscape:export-xdpi="69.574913"
     inkscape:export-ydpi="69.574913" />
  <path
     class="cls-2"
     d="m 481.33851,423.49352 c 5.7899,-0.56435 9.40598,0.24038 15.2377,0 a 3.6160818,3.6160818 0 0 1 0.16721,2.67548 l -12.54132,0.80473 a 14.171696,14.171696 0 0 0 0,6.81414 c 3.89826,0.73157 8.03691,0.24037 12.4159,0.40758 0.63753,0.73158 0.39715,2.01706 0.16723,2.90541 l -12.75035,0.4076 c -0.93014,2.99947 0.16722,6.56329 -0.15679,9.32238 l 1.24369,0.9615 11.66344,0.41805 c 0.14623,0.80473 0.61661,2.26789 -0.4076,2.91585 h -14.80921 l -0.53301,-0.39713 v -26.66077 z"
     id="path46"
     style="fill:#b44921;fill-opacity:1;stroke-width:1.04511046"
     inkscape:connector-curvature="0"
     inkscape:export-filename="C:\Users\suitedoalex\sites\outback-logo-4.png"
     inkscape:export-xdpi="69.574913"
     inkscape:export-ydpi="69.574913" />
  <path
     class="cls-2"
     d="m 517.4157,430.91382 c 1.41091,0 3.46977,0.24037 3.46977,-1.84986 0,-1.59902 -1.25413,-1.79759 -2.4769,-1.79759 h -2.8427 v 3.64745 z m 4.67165,5.72719 h -1.4527 l -2.83225,-4.73435 h -2.23653 v 4.73435 h -1.21233 v -10.27343 h 4.3372 c 2.62323,0 3.52202,1.04511 3.52202,2.71729 0,2.01706 -1.36909,2.76954 -3.13534,2.82179 z m 3.03081,-5.15239 c 0,-4.47307 -3.13533,-7.96374 -7.46208,-7.96374 -4.32676,0 -7.49344,3.49067 -7.49344,7.96374 0,4.47308 3.13534,8.02645 7.49344,8.02645 4.35812,0 7.46208,-3.50112 7.46208,-8.02645 m -16.36643,0 a 8.8938892,8.8938892 0 1 1 8.90435,9.24922 9.0506556,9.0506556 0 0 1 -8.90435,-9.24922"
     id="path48"
     style="fill:#b44921;fill-opacity:1;stroke-width:1.04511046"
     inkscape:connector-curvature="0"
     inkscape:export-filename="C:\Users\suitedoalex\sites\outback-logo-4.png"
     inkscape:export-xdpi="69.574913"
     inkscape:export-ydpi="69.574913" />
  <path
     class="cls-2"
     d="m 429.95042,355.30008 c 1.93345,0.17767 5.83172,-0.73159 6.70962,2.19473 a 28.709181,28.709181 0 0 1 1.4109,10.4511 c -2.99948,1.8185 -5.6436,5.67495 -8.9984,2.18429 -3.69971,-1.46316 -1.76625,-5.30916 -1.58858,-8.23548 3.13534,-1.04511 1.94392,-4.379 2.46646,-6.57374 m -83.26395,-17.69372 c 3.60564,-0.51212 7.71293,-0.34489 9.3433,3.74149 a 12.541324,12.541324 0 0 1 -7.05451,11.91427 c -1.63036,-0.51212 -3.60562,-0.857 -4.26403,-2.89496 -0.64799,-4.24316 -2.94722,-10.04353 1.97524,-12.7608 m -1.0451,28.21797 c 2.79044,1.2855 5.59135,-1.12871 7.91148,1.12873 2.93676,3.36525 2.16338,8.5072 0.77339,12.36365 -0.77339,1.76624 -2.48735,4.02367 -4.50443,4.18044 -1.84984,-0.64795 -4.80751,-0.64795 -5.22554,-3.38615 -1.84986,-4.81797 0.15678,-9.80313 1.0451,-14.29711 m -242.9359,-14.48524 c 2.55007,-3.13533 4.99563,-6.60509 9.00885,-7.62931 4.69254,0.61662 7.63976,4.18046 10.57651,7.62931 1.17053,6.79322 0.98241,13.91042 -1.66172,19.90936 -1.87075,2.4351 -4.51488,5.22556 -7.74426,5.1733 -4.69256,1.21233 -7.24263,-2.64414 -9.406,-5.90488 -0.59571,-4.85976 -1.96481,-9.53139 -0.78384,-14.30756 z m 437.77582,32.1058 a 23.734455,23.734455 0 0 1 0.28218,-3.2921 19.083714,19.083714 0 0 0 0.22993,-2.32015 2.3933028,2.3933028 0 0 0 -0.13585,-0.88833 l -0.91969,-0.0941 a 6.145249,6.145249 0 0 0 -1.66172,-0.16723 v 0 l -1.04513,0.41804 -6.16614,0.41805 c -4.00277,0.37624 -8.14142,0.7734 -12.60403,-0.14623 l -0.37625,-0.19857 -8.11006,-4.32676 -0.48075,-0.79429 a 20.829049,20.829049 0 0 1 -3.04125,-10.35704 13.137037,13.137037 0 0 1 1.54676,-6.27065 c 0,0.0731 -0.0836,0.10448 -0.0941,0.1672 l 0.16722,-0.33443 c 0,0.0523 0,0.11491 -0.0731,0.16723 1.55721,-3.45932 4.71343,-5.22556 7.31577,-6.59465 l 2.21562,-1.27505 c 3.43842,-3.54291 7.71293,-3.20848 10.90052,-2.89495 a 12.541324,12.541324 0 0 0 4.77615,-0.0731 10.210728,10.210728 0 0 1 6.36472,-0.34489 10.586968,10.586968 0 0 0 1.42135,0.18812 c 0,-0.26126 0.11491,-0.50164 0.11491,-0.77338 a 25.751519,25.751519 0 0 0 -0.25082,-2.92631 29.148128,29.148128 0 0 1 -0.29263,-3.67878 13.189293,13.189293 0 0 1 0.41804,-3.13534 14.788311,14.788311 0 0 1 -0.40759,-3.38615 c 0,-0.77338 0,-1.56767 0.0836,-2.34104 0.0836,-0.77339 0,-1.45271 0,-2.09023 a 5.4136717,5.4136717 0 0 0 -0.67934,-3.04128 h -0.30292 c -1.41088,-0.1672 -2.09022,-0.22991 -2.42465,0.0523 l -1.10782,0.98241 -1.4736,-0.14624 a 27.475952,27.475952 0 0 0 -5.50773,0.21946 26.869787,26.869787 0 0 1 -8.63262,-0.19855 l -6.27065,0.75246 c -6.94999,0.65842 -13.51328,1.27504 -17.56831,6.27067 l -0.62707,0.76293 -0.91969,0.31353 c -3.79376,1.2855 -6.42743,5.22556 -8.98795,9.10292 l -0.66888,1.04511 -0.45984,0.35533 c -4.98519,3.79375 -5.22556,9.59411 -5.52864,16.31417 0,0 -0.4076,5.22556 -0.52256,6.64691 a 32.555188,32.555188 0 0 1 2.59188,10.23164 22.114535,22.114535 0 0 0 7.49344,11.59026 l 0.9406,0.71067 0.28219,1.12872 c 0.43893,1.76624 2.26788,2.86361 5.22555,4.45218 a 29.064519,29.064519 0 0 1 4.75525,3.04126 l 0.37624,0.30309 0.27173,0.40758 c 0.54345,0.8152 1.80804,0.95107 4.38946,1.04513 a 20.703637,20.703637 0 0 1 4.95382,0.74203 11.642529,11.642529 0 0 1 7.55615,0 8.2250184,8.2250184 0 0 0 3.26075,0.43894 l 0.533,-0.10448 0.53301,0.0523 a 10.294337,10.294337 0 0 0 3.26074,-0.50164 c 2.3097,-0.56437 5.36141,-1.17054 8.36088,0.42848 l 2.19474,-0.18811 a 11.496214,11.496214 0 0 0 4.41035,-0.82564 11.882904,11.882904 0 0 0 0.39715,-3.32345 c 0,-0.44939 0,-0.90924 0,-1.36908 0,-0.45987 0,-1.04513 0,-1.52588 a 21.142582,21.142582 0 0 1 0.59571,-5.02698 9.9389994,9.9389994 0 0 1 -0.84654,-3.8251 M 379.08491,365.20776 c -0.54347,-1.94391 -0.80475,-2.60233 -1.80804,-3.13533 l -2.81135,-1.33774 1.09736,-2.91587 a 20.390104,20.390104 0 0 1 3.03082,-4.98516 c 1.58857,-2.09023 2.36195,-3.27121 2.36195,-4.51489 a 2.9785645,2.9785645 0 0 0 -0.11491,-0.83609 l -0.43895,-1.66172 1.04511,-1.32729 a 6.166151,6.166151 0 0 0 1.13918,-4.00279 20.766342,20.766342 0 0 0 -0.55392,-4.18043 c -0.61662,-0.9615 -1.79759,-2.86359 -1.79759,-2.86359 -2.3724,-4.04458 -3.66833,-5.83174 -6.1557,-5.91533 h -1.42135 l -0.9615,-1.04511 c -2.456,-2.68594 -7.31578,-2.45602 -11.2872,-2.27834 h -0.29261 a 50.740107,50.740107 0 0 1 -13.58644,0 30.3082,30.3082 0 0 1 -10.69149,0.35534 37.070064,37.070064 0 0 0 -7.08584,-0.22993 c -3.13533,2.03797 -6.27066,0.97196 -8.04735,0.24038 a 15.237709,15.237709 0 0 0 -1.63038,-0.59571 l -0.32398,0.32398 a 0.48075076,0.48075076 0 0 0 -0.14624,0.37623 7.6188545,7.6188545 0 0 0 0.39715,1.69309 12.259144,12.259144 0 0 1 0.67932,3.64743 6.8559238,6.8559238 0 0 1 -1.21233,3.63698 6.2706621,6.2706621 0 0 0 -0.30308,1.98572 22.616188,22.616188 0 0 0 1.26458,6.13479 l 0.38669,1.28548 -0.39714,1.04512 a 22.15634,22.15634 0 0 0 -1.25413,7.72337 36.119013,36.119013 0 0 0 0.62707,6.51104 l 0.14624,0.77337 -0.20901,0.74203 a 25.490242,25.490242 0 0 0 -0.80473,6.77232 63.385943,63.385943 0 0 0 1.17051,11.02591 l 0.25083,1.4318 -0.86745,1.18097 a 6.6678041,6.6678041 0 0 0 -0.88833,3.79376 15.112296,15.112296 0 0 0 0.85699,5.00608 l 0.62705,1.70352 -1.0451,1.4736 a 8.8207315,8.8207315 0 0 0 -1.16007,4.81796 9.9180972,9.9180972 0 0 0 0.54345,3.25029 c 4.26406,0.12546 8.11006,0.0941 11.96653,-1.35863 l 1.17051,-0.44941 1.18098,0.42851 a 17.192065,17.192065 0 0 0 11.30809,0 l 1.60946,-0.57481 1.43182,0.94059 a 6.9813372,6.9813372 0 0 0 2.29923,0.40759 l 1.7767,0.24037 a 39.233443,39.233443 0 0 1 10.61831,-0.32398 44.584408,44.584408 0 0 0 6.27067,0.14625 l 9.07154,-2.93678 c 1.77671,-0.70021 2.52918,-2.46645 3.5952,-5.30916 a 24.580996,24.580996 0 0 1 2.25743,-4.8702 l 0.64796,-1.04511 0.77339,-0.25083 c 0.0731,-0.20902 0.27174,-0.75249 0.34489,-0.9824 0,-0.60617 -0.11491,-1.20188 -0.11491,-1.78714 0,-1.44225 0.12545,-2.83226 0.25082,-4.12819 0.12547,-1.29594 0.21947,-2.40376 0.21947,-3.37571 a 6.4274287,6.4274287 0 0 0 -0.91969,-3.64742 10.733283,10.733283 0 0 1 -4.08638,-6.38563 m 246.25935,22.50123 a 19.857097,19.857097 0 0 0 -0.39714,-3.2921 24.257011,24.257011 0 0 1 -0.51212,-4.48354 13.471473,13.471473 0 0 1 0.27173,-2.44554 l -3.30253,-2.50828 c -3.56384,-2.70683 -6.93955,-5.22555 -10.64969,-6.27065 l -1.99615,-0.60616 -0.8361,-3.58473 a 21.748747,21.748747 0 0 1 -0.85699,-5.41367 10.524261,10.524261 0 0 1 0.66887,-3.71015 1.7662365,1.7662365 0 0 0 -0.11492,0.28218 l 0.15679,-0.50166 a 1.619921,1.619921 0 0 0 0,0.21948 c 0.7734,-2.93676 3.13533,-4.57758 4.94338,-5.75857 l 0.3867,-0.26126 c 1.84983,-3.7624 4.95382,-5.89442 7.78607,-7.72337 a 14.265756,14.265756 0 0 0 4.81795,-4.28495 6.8872772,6.8872772 0 0 0 -2.28879,-2.7173 l -0.9824,-0.81518 -0.21947,-1.25414 c -0.58526,-3.58473 -4.65074,-6.07208 -8.23548,-8.27727 l -0.79429,-0.26127 -0.73157,0.10449 c -2.97856,0.37624 -3.30254,0.65841 -3.46977,1.33773 l -0.41803,1.70353 -1.65129,0.63752 c -2.78,1.0451 -5.73765,3.89827 -7.91148,7.52479 l -0.74203,1.25414 -1.44226,0.31352 c -0.36578,0.0836 -0.9824,0.91972 -1.52585,1.64084 -1.12872,1.53631 -2.66503,3.62652 -5.52864,4.24314 l -1.71398,0.38669 -1.30639,-1.20187 a 6.5319397,6.5319397 0 0 1 -2.0902,-4.78661 9.0193023,9.0193023 0 0 1 -1.41091,-4.52532 17.871387,17.871387 0 0 1 0.78383,-4.67164 14.077636,14.077636 0 0 0 0.60617,-3.30256 c 0,-0.14624 0,-0.28218 -0.0523,-0.42849 -0.62706,-0.79429 -1.70353,-0.85699 -5.62269,0.13586 a 22.563933,22.563933 0 0 1 -5.43458,0.90925 h -2.14247 l -0.5748,-1.27503 h -0.21948 a 13.022074,13.022074 0 0 1 -7.53526,0.28217 c -0.76291,-0.14641 -1.44224,-0.21947 -2.09021,-0.29263 0,0.38669 -0.1149,0.75247 -0.1149,0.75247 l -0.0941,0.78384 a 16.836728,16.836728 0 0 1 0.56435,3.80421 41.219153,41.219153 0 0 1 -0.44939,5.22555 35.13661,35.13661 0 0 0 -0.39715,4.3581 8.8102802,8.8102802 0 0 0 0.67932,3.59518 l 0.50165,1.16008 -0.37623,1.22279 a 21.738295,21.738295 0 0 0 -1.04512,6.47967 13.973126,13.973126 0 0 0 0.533,4.01322 l 0.15679,0.48075 -0.20902,8.48631 -0.19856,16.38732 0.18811,2.09023 a 23.49408,23.49408 0 0 1 0.25083,2.99946 10.012157,10.012157 0 0 1 -0.52257,3.25029 24.580996,24.580996 0 0 0 -0.41802,4.61938 39.411111,39.411111 0 0 0 0.54345,6.08256 l 0.5748,-0.16723 a 10.106217,10.106217 0 0 1 4.60894,-0.78382 l 0.86744,0.0941 0.72114,0.51212 a 2.9681133,2.9681133 0 0 0 1.76622,0.28216 l 2.24699,-0.68976 0.8152,0.90923 h 0.50163 c 3.37572,-2.67547 6.84548,-1.30639 8.61173,-0.50163 1.76623,0.80473 1.9648,0.75246 2.33058,0.49118 l 0.62707,-0.35534 c -0.0732,-0.37622 -0.24038,-0.91969 -0.36579,-1.34817 a 13.690946,13.690946 0 0 1 -0.83608,-4.24316 7.6920122,7.6920122 0 0 1 0.8779,-3.61608 l 0.21946,-0.41804 0.33443,-0.35534 a 3.0726244,3.0726244 0 0 0 0.29264,-1.73489 c 0,-0.37623 0,-0.75248 0,-1.10781 0,-0.35534 0,-0.90925 0,-1.37955 a 10.70193,10.70193 0 0 1 0.75249,-4.31629 l 1.29593,-2.97858 3.03082,1.17053 c 2.74865,1.04511 4.36855,3.34436 5.6854,5.16284 l 0.9197,1.25413 -0.41805,-0.43895 3.83555,4.01322 a 27.570011,27.570011 0 0 0 4.48353,4.39993 c 3.77284,0.14623 6.03029,2.63368 7.55615,4.36855 1.19142,1.35865 1.923,2.09023 2.8636,2.27835 l 1.0451,0.32398 0.56437,0.34489 a 7.5247945,7.5247945 0 0 0 1.93346,-0.0836 9.6568197,9.6568197 0 0 1 5.01652,0.33443 l 0.21947,0.0941 0.24039,0.12546 a 20.557321,20.557321 0 0 1 0.76293,-4.18043 11.255839,11.255839 0 0 0 0.5539,-2.82181 3.135331,3.135331 0 0 0 -0.27173,-1.33774 l -0.6375,-1.44226 0.68976,-1.41089 a 5.0792363,5.0792363 0 0 0 0.52254,-2.36195 m -152.63836,7.69202 a 43.267567,43.267567 0 0 1 -4.41035,-11.27674 38.533218,38.533218 0 0 0 -3.49067,-9.406 l -0.38671,-0.66886 -0.0523,-0.78384 a 15.593046,15.593046 0 0 0 -3.52202,-8.44449 l 0.37625,0.41804 c -2.62324,-2.45601 -2.52917,-5.63314 -2.45603,-7.73381 0,-1.35864 0,-2.21563 -0.29261,-2.60233 -4.02368,-3.38616 -4.45218,-7.98465 -4.76572,-11.72613 -0.19856,-2.39331 -0.3867,-4.6612 -1.35863,-6.16616 a 16.126053,16.126053 0 0 1 -2.45601,-7.13811 12.060574,12.060574 0 0 0 -1.04511,-3.91915 l -0.11492,-0.20902 -0.0941,-0.22993 c -0.56435,-1.41091 -0.64796,-1.64083 -4.36856,-0.99285 a 17.254773,17.254773 0 0 1 -7.02314,0 4.0968326,4.0968326 0 0 1 -1.30638,-0.0941 l -0.61662,0.17766 a 8.5176493,8.5176493 0 0 1 -6.16614,-0.0523 l -4.73436,0.19856 c -3.88782,0.27174 -8.23546,0.51211 -12.25914,-0.38669 l -0.37624,0.17767 c -2.46646,1.28549 -4.52533,1.13917 -6.27067,-0.17767 l -1.0451,-0.28217 a 6.5110374,6.5110374 0 0 0 -0.58527,2.61277 6.9604349,6.9604349 0 0 0 0.16723,1.52585 11.193132,11.193132 0 0 1 0.9406,4.36857 24.204755,24.204755 0 0 1 -0.62708,4.88066 19.125519,19.125519 0 0 0 -0.48075,3.41753 3.2711954,3.2711954 0 0 0 0.64798,2.0066 8.1936652,8.1936652 0 0 0 1.13916,0.0941 7.7442678,7.7442678 0 0 1 6.36472,2.57097 l 0.79428,1.25413 -0.0627,3.95051 v 1.12873 c 0,3.13533 -0.39715,6.84547 -3.00992,9.76133 a 18.007252,18.007252 0 0 1 -2.50827,7.12764 c -0.97195,1.8185 -1.58857,3.04128 -1.58857,4.28496 a 2.7590912,2.7590912 0 0 0 0,0.29263 l 0.12546,1.59902 -1.10781,1.13918 c -2.15293,2.09021 -2.91586,5.47637 -3.71015,9.05064 l -0.58525,2.62323 -1.33775,0.13585 a 17.32793,17.32793 0 0 1 -2.97856,7.71292 13.586434,13.586434 0 0 0 -1.89164,4.29539 15.373573,15.373573 0 0 0 1.72442,-0.22991 16.178308,16.178308 0 0 1 4.52533,-0.21948 10.660125,10.660125 0 0 1 5.54955,-0.32397 l 1.17051,0.12545 a 9.9285483,9.9285483 0 0 1 7.03359,-0.11491 c 1.5363,0.42849 1.93346,0.38668 2.23654,0.20902 a 4.0654793,4.0654793 0 0 0 0.4494,-1.0451 l 0.32398,-1.50497 0.97195,-0.90924 0.42851,-0.98241 a 8.5908071,8.5908071 0 0 1 2.48736,-3.99232 l 0.12546,-0.10448 0.12546,-0.0941 c 5.22555,-3.64744 11.67389,-2.97856 16.88898,-2.43511 l 0.95105,0.0836 c 6.27066,-0.24038 9.0402,5.50773 10.73329,8.98795 0,0 0.25082,0.49119 0.48075,0.97195 a 6.7932172,6.7932172 0 0 0 5.2778,-0.76292 l 1.8185,-1.04512 1.74532,1.16008 c 1.64083,1.0451 3.72059,0.79428 6.94998,0.1672 l 4.62985,-0.84653 0.74203,1.64084 0.533,0.0941 a 3.2189399,3.2189399 0 0 0 0.94059,-0.63753 14.474778,14.474778 0 0 0 -0.34488,-2.36194 c 0,0 0,-0.15678 -0.0733,-0.32398 m -172.24463,-72.353 0.42848,-0.15678 c -0.17766,0.0836 -0.35534,0.094 -0.533,0.16722 z m -68.53835,64.94316 -0.43895,-0.60616 v -5.03743 c 0,-0.70023 0,-1.38999 0,-2.09022 0,-2.98901 -0.17766,-5.94668 -1.32728,-8.36088 l -0.88835,-1.8185 1.18098,-1.64082 a 8.1518606,8.1518606 0 0 0 1.32729,-4.90157 37.864348,37.864348 0 0 0 -0.52256,-5.34051 l -0.56436,-4.84931 c 0,0 0.84655,-2.34105 1.04512,-2.99946 0,-0.50166 0.0522,-1.04513 0.0522,-1.51543 a 57.731895,57.731895 0 0 0 -0.5539,-6.89771 59.85347,59.85347 0 0 1 -0.56436,-7.02315 22.992428,22.992428 0 0 1 0.74203,-5.83171 l -0.21948,-3.48021 a 10.001706,10.001706 0 0 0 -0.43894,-3.50113 2.7068358,2.7068358 0 0 0 -1.79759,0.42849 l -1.77669,2.09022 -2.40375,-1.29593 a 11.193132,11.193132 0 0 0 -4.78661,-0.86745 l -1.91255,-0.15678 -1.10782,0.91971 -0.35533,0.1672 a 6.4065264,6.4065264 0 0 1 -6.33337,-0.58526 9.405993,9.405993 0 0 1 -2.48737,0.17769 17.599658,17.599658 0 0 0 -0.40759,3.0308 c 0,0.98241 0.0627,1.98572 0.11496,3.04128 0.0523,1.05555 0.12541,2.21564 0.12541,3.40706 a 25.333475,25.333475 0 0 1 -0.48074,4.61938 58.045428,58.045428 0 0 1 0.59571,7.65021 c 0,1.95435 -0.0627,3.85645 -0.13587,5.73766 -0.0731,1.8812 -0.12541,3.66833 -0.12541,5.45546 a 43.967792,43.967792 0 0 0 0.85699,9.25969 v 0.97195 l -0.38669,3.74149 c -0.15677,2.98902 -0.39714,6.66782 -3.313,9.3015 0.0627,-0.0627 0.13586,-0.0941 0.19857,-0.15679 l -0.41805,0.41804 c 0.0941,-0.0836 0.12541,-0.17767 0.21948,-0.26127 -1.93346,2.09021 -4.55668,2.30968 -7.85923,0.48076 l -0.50165,-0.28219 0.32398,0.14623 c -4.47308,-1.59902 -5.22555,-6.1766 -5.62269,-8.6326 l -0.21948,-1.29595 0.16722,-0.67932 a 0.74202834,0.74202834 0 0 0 0,-0.21947 6.7409618,6.7409618 0 0 0 -0.48076,-1.8185 11.203582,11.203582 0 0 1 -0.77337,-3.66833 6.2706621,6.2706621 0 0 1 0.71067,-2.68594 34.248265,34.248265 0 0 0 0.43895,-5.22555 34.749919,34.749919 0 0 0 -0.4703,-5.67495 l -0.17767,-1.11827 0.52256,-1.0451 a 6.1766023,6.1766023 0 0 0 0.35533,-2.55007 c 0,-0.59571 0,-1.20188 0,-1.76624 0,0 0,-1.3064 0,-2.22609 a 13.210194,13.210194 0 0 1 -1.4318,-5.84216 32.973231,32.973231 0 0 1 0.55391,-5.22556 26.775727,26.775727 0 0 0 0.4703,-4.18044 6.8872772,6.8872772 0 0 0 -0.4703,-2.48736 8.6535138,8.6535138 0 0 0 -3.50112,0.73159 l -1.42135,0.61659 -1.38999,-0.66886 c -2.18429,-1.0451 -6.39608,-2.49781 -10.09578,-0.41803 l -0.5121,0.29261 -0.57481,0.10448 a 10.242081,10.242081 0 0 1 -4.92247,-0.49119 8.1309586,8.1309586 0 0 0 -0.26127,2.20519 c 0,0.94059 0.0836,1.93345 0.13585,2.80089 0,0 0.0627,0.9406 0.0836,1.54676 a 10.618321,10.618321 0 0 1 1.04512,4.37901 23.190999,23.190999 0 0 1 -0.60616,4.62985 18.205823,18.205823 0 0 0 -0.49121,3.45931 5.2882584,5.2882584 0 0 0 0.35534,1.93346 l 0.28218,0.60615 -0.17767,6.27067 c -0.0836,2.30969 -0.16721,4.64029 -0.16721,6.93954 a 45.702677,45.702677 0 0 0 0.91969,10.15846 l 0.21948,0.9615 -0.32399,0.91971 a 6.7409618,6.7409618 0 0 0 -0.34488,2.24698 22.867016,22.867016 0 0 0 0.93014,5.35096 c 0,0 0.4703,2.3097 0.77338,3.83557 a 15.676655,15.676655 0 0 1 4.02367,7.03358 c 1.04512,3.02037 1.51542,4.18045 3.26075,4.69255 a 15.039138,15.039138 0 0 1 5.89442,2.57096 c 2.02752,1.3064 2.96812,1.80805 4.10729,1.54678 l 1.27503,-0.31355 1.13917,0.63753 c 1.51541,0.82564 3.69969,0.65841 5.99893,0.44939 l 2.09022,-0.12546 a 13.492374,13.492374 0 0 0 2.96812,-1.35863 c 2.4142,-1.32729 5.40322,-2.97858 9.30148,-2.02753 l 1.45271,0.3449 0.72112,1.31683 c 0.65842,1.19144 2.09022,1.39 5.06879,1.52587 l 1.82894,0.13585 0.61661,-0.11491 a 10.89005,10.89005 0 0 1 3.95052,-0.35534 l 1.56767,0.1672 c 3.78329,0.4076 7.92193,0.71068 10.77508,-0.80473 -0.10448,-2.20519 -1.33774,-4.3163 -2.80089,-6.67825 z m 68.83097,-58.8397 a 36.693825,36.693825 0 0 0 -0.57481,-6.0303 13.220646,13.220646 0 0 1 -5.94667,0.41805 c -2.21564,-0.25082 -2.66504,-0.18813 -3.21896,0.42849 l -2.55005,2.90541 c 0,0 -2.00662,-2.29924 -2.34106,-2.69637 h -0.77338 a 8.5176493,8.5176493 0 0 1 -4.44172,-0.82566 c -0.74202,0 -1.50496,0 -1.50496,0 -1.0451,0 -1.57811,-0.0523 -1.8603,0.15679 l -0.77337,0.55392 -0.93015,0.0731 a 43.769222,43.769222 0 0 1 -11.49622,-1.0451 12.300949,12.300949 0 0 1 -9.56275,0.22993 8.0682519,8.0682519 0 0 0 -4.46262,0.31352 c -0.0731,2.3306 -0.22993,7.31577 -0.22993,7.39938 a 12.948917,12.948917 0 0 1 0.21947,2.00662 33.777967,33.777967 0 0 1 -0.27173,3.66833 25.720165,25.720165 0 0 0 -0.22993,2.94722 2.5291671,2.5291671 0 0 0 0.45987,1.71396 5.1001386,5.1001386 0 0 1 1.4318,0 13.92087,13.92087 0 0 1 5.57042,-0.21946 l 2.56053,0.24037 0.63753,0.38669 c 3.13533,1.82895 3.57426,4.83887 3.57426,7.19036 0,0.54347 0,1.04511 0,1.48406 0,0.43895 -0.0523,0.86745 -0.0523,1.30639 a 3.135331,3.135331 0 0 0 0.19858,1.3691 l 0.87789,1.35863 -0.52255,1.54677 a 13.513277,13.513277 0 0 0 -0.64798,4.3372 43.894634,43.894634 0 0 0 0.53302,5.69587 49.308307,49.308307 0 0 1 0.57481,6.52148 19.857097,19.857097 0 0 1 -1.17053,6.5842 22.198143,22.198143 0 0 1 0.55391,4.73434 51.032738,51.032738 0 0 1 -0.44939,5.86308 44.939745,44.939745 0 0 0 -0.4076,5.11058 14.631545,14.631545 0 0 0 0.5121,3.7415 11.067719,11.067719 0 0 0 2.51871,0.16721 l 0.56436,-0.19857 a 6.6991574,6.6991574 0 0 1 5.22556,-0.21947 l 2.78,0.22993 c 1.87074,0.29263 2.58141,0.34488 3.22939,-0.0941 3.3966,-2.43511 6.50059,-1.04511 8.17276,-0.22992 l 0.44939,0.17765 a 5.2255517,5.2255517 0 0 0 0.18812,-0.77337 7.8069742,7.8069742 0 0 0 -0.57481,-2.78 l -0.27173,-0.64797 0.15679,-4.12817 c 0.0941,-2.23655 0.19856,-4.51489 0.19856,-6.76187 a 44.678467,44.678467 0 0 0 -0.65841,-8.28772 l -0.24038,-1.23324 0.63753,-1.0451 a 4.4312679,4.4312679 0 0 0 0.4703,-2.16338 21.947317,21.947317 0 0 0 -0.35534,-3.25029 26.692118,26.692118 0 0 1 -0.42851,-4.1282 10.597419,10.597419 0 0 1 0.0732,-1.28548 v -0.35533 l 0.10448,-0.33443 a 8.9461446,8.9461446 0 0 0 0.39713,-2.82181 28.667377,28.667377 0 0 0 -0.25081,-3.29209 36.014502,36.014502 0 0 1 -0.28219,-3.94008 13.377413,13.377413 0 0 1 1.24369,-5.91532 c 2.68593,-6.12434 7.92194,-5.03742 10.4511,-4.50442 a 5.7481069,5.7481069 0 0 0 2.58142,0.17767 11.611176,11.611176 0 0 0 -0.45984,-2.32016 l -0.58527,-2.15291 0.41804,-1.04511 a 17.160713,17.160713 0 0 0 1.04513,-6.27066 m -149.30422,22.67903 v -0.99286 c 0,-0.18811 0,-0.37624 0,-0.54345 a 15.760264,15.760264 0 0 0 -6.50059,-13.14749 l -0.82564,-0.58526 -0.36578,-0.95105 c -0.86744,-2.22608 -2.86361,-3.79374 -5.16285,-5.60178 l -1.04511,-0.82564 a 13.910419,13.910419 0 0 1 -5.35097,-2.87407 c -1.64082,-1.28548 -2.46645,-1.83939 -3.40705,-1.75578 l -1.2646,0.11491 -1.0451,-0.74203 c -3.54292,-2.58142 -9.19697,-2.53962 -14.1926,-2.51872 h -2.18428 l -0.53301,-0.17765 c -0.64796,-0.20904 -1.22278,0 -2.68593,0.62707 a 12.478617,12.478617 0 0 1 -5.07923,1.32727 23.410471,23.410471 0 0 1 -6.59465,2.81135 14.318011,14.318011 0 0 0 -4.72391,1.93346 13.084781,13.084781 0 0 1 -5.7481,5.76901 c -1.9439,1.13916 -2.74864,1.70353 -3.04127,2.78 l -0.38669,1.43179 -1.32729,0.68977 c -0.41804,0.20902 -0.679322,0.85699 -1.160073,2.18429 a 13.408766,13.408766 0 0 1 -2.487362,4.2954 c -0.250827,0.87789 -2.090222,7.12765 -2.26789,7.86968 0,0.857 0,4.18044 0,4.18044 0,1.35865 -0.06271,2.71728 -0.06271,4.08638 0,5.60179 0.533007,11.01546 3.793751,14.79877 l 0.438946,0.4912 0.209022,0.63751 c 1.222776,3.65789 4.870216,12.36365 12.175536,14.35983 l 1.04511,0.28217 0.66887,0.77338 c 2.17383,2.51871 5.85262,3.3339 9.40599,4.10729 0,0 1.73488,0.39713 1.97526,0.4703 l 1.67218,0.0836 a 10.127119,10.127119 0 0 1 4.36856,0.81518 c 5.93622,0.71067 14.27621,1.11827 19.4913,-3.13533 l 0.9406,-0.75247 h 1.17053 a 6.2706621,6.2706621 0 0 0 2.71728,-1.10782 l 3.03082,-1.4527 -0.533,0.22992 c 2.81135,-1.56766 4.7657,-4.18044 6.83502,-6.87683 a 35.878637,35.878637 0 0 1 6.6469,-7.23215 c 0.68978,-0.49121 0.8361,-1.57812 0.98241,-3.78331 0.14631,-2.20519 0.43894,-5.10013 2.3515,-7.45164 0,-1.13916 0.10448,-2.62322 0.10448,-2.62322 0.0731,-1.38999 0.14632,-2.68594 0.14632,-3.91915 a 13.377413,13.377413 0 0 0 -1.67217,-7.26353 z"
     id="path50"
     style="fill:#b44921;fill-opacity:1;stroke-width:1.04511046"
     inkscape:connector-curvature="0"
     inkscape:export-filename="C:\Users\suitedoalex\sites\outback-logo-4.png"
     inkscape:export-xdpi="69.574913"
     inkscape:export-ydpi="69.574913" />
  <path
     class="cls-2"
     d="m 76.546356,297.7563 c 0,-0.28219 1.04511,-0.97195 2.309695,-1.54676 1.264589,-0.57481 3.250289,-1.51542 4.389459,-2.09023 1.13917,-0.57481 2.96812,-1.38999 4.05503,-1.83938 1.08692,-0.44942 2.79045,-1.17054 3.8042,-1.61993 1.01376,-0.44939 3.30255,-1.37954 5.07924,-2.09023 1.77669,-0.71068 4.54623,-1.73487 6.1348,-2.30968 1.58856,-0.57482 3.98187,-1.40046 5.30916,-1.84985 1.32729,-0.44939 3.41751,-1.0451 4.61939,-1.38999 1.20187,-0.34488 3.90871,-1.09737 6.00938,-1.72444 2.10067,-0.62707 5.01653,-1.42134 6.46923,-1.74533 1.4527,-0.32399 3.90872,-0.72112 5.43458,-0.9197 1.52585,-0.19857 3.97142,-0.43894 5.42412,-0.57481 1.45271,-0.13585 3.23984,-0.33443 3.92962,-0.45984 0.68976,-0.12547 1.74533,-0.28219 2.32014,-0.35534 0.57482,-0.0733 3.13533,-0.4703 12.66673,-0.91972 9.53141,-0.44939 18.16403,-0.90923 19.17779,-1.0451 l 3.92961,-0.45984 c 1.13917,-0.13585 4.18044,-0.34489 6.69915,-0.45985 2.51873,-0.11491 5.65405,-0.24038 6.92909,-0.24038 1.27503,0 3.30255,0 4.50443,0.11492 1.20187,0.11491 3.08307,0.21947 4.18044,0.34488 1.09736,0.12547 2.74864,0.39715 3.69968,0.58526 0.95105,0.18814 1.8394,0.76294 1.96481,1.27503 a 9.0611068,9.0611068 0 0 0 0.58526,1.60947 c 0.18813,0.37625 0.49121,0.95105 0.68978,1.27503 a 12.781699,12.781699 0 0 0 0.80473,1.14963 9.1029112,9.1029112 0 0 0 1.61992,1.39 c 0.63752,0.43895 1.82895,1.22277 2.65458,1.73489 a 3.135331,3.135331 0 0 0 2.20519,0.5748 6.2706621,6.2706621 0 0 1 1.4945,-0.4703 c 0.43895,-0.0627 1.22278,-0.16721 1.72444,-0.21947 a 9.9076461,9.9076461 0 0 0 1.8603,-0.4703 c 0.50164,-0.18812 2.09022,-0.85699 3.57427,-1.50496 1.48405,-0.64795 3.3339,-1.45271 4.18044,-1.83939 a 17.766875,17.766875 0 0 1 3.23984,-1.04511 c 0.95106,-0.18811 2.40376,0.75248 3.2294,2.09022 a 4.9120186,4.9120186 0 0 0 3.69968,3.35481 l 2.76954,0.80473 c 1.04513,0.32399 2.85315,0.79429 3.92962,1.04511 1.07647,0.25081 2.38287,0.61661 2.89495,0.80474 0.51211,0.18811 1.23323,0.51211 1.61993,0.70022 a 1.6303721,1.6303721 0 0 0 1.4945,-0.24038 19.000106,19.000106 0 0 1 1.73488,-1.0451 10.451103,10.451103 0 0 1 1.96482,-0.68979 4.243148,4.243148 0 0 1 1.84984,0 c 0.44941,0.12547 0.80475,-0.0836 0.80475,-0.4703 a 6.6678041,6.6678041 0 0 1 0.22992,-1.4945 c 0.13585,-0.44939 0.34488,-1.18097 0.47029,-1.61992 a 6.2706621,6.2706621 0 0 1 0.68978,-1.50496 c 0.25082,-0.37623 0.61661,-0.8988 0.80473,-1.16008 a 4.45217,4.45217 0 0 1 0.93015,-0.80473 c 0.31353,-0.18811 1.14962,-0.60617 1.84985,-0.91969 a 25.918738,25.918738 0 0 1 2.76953,-1.0451 c 0.82564,-0.25084 2.28879,-0.66888 3.23985,-0.91972 0.95105,-0.25082 3.23984,-0.82562 5.07923,-1.27502 a 42.985388,42.985388 0 0 0 4.73435,-1.37955 c 0.76293,-0.32398 1.91256,-0.84655 2.55007,-1.16007 a 16.241015,16.241015 0 0 0 3.3757,-4.24316 c 1.27506,-2.03796 2.93678,-3.54291 3.69969,-3.34435 l 2.65459,0.68977 a 34.749919,34.749919 0 0 1 3.46976,1.26459 c 1.21233,0.51212 3.08309,1.40045 4.18046,1.96481 1.09734,0.56436 2.84269,1.40045 3.9296,1.84984 a 26.336781,26.336781 0 0 0 3.45932,1.16007 c 0.83608,0.18813 2.09023,0.44941 2.77999,0.57482 0.68977,0.12547 1.8394,0.33443 2.53962,0.45985 a 14.380718,14.380718 0 0 1 2.42466,0.70022 2.9890156,2.9890156 0 0 0 2.30969,-0.22993 c 0.63751,-0.38669 1.63038,-0.95104 2.19473,-1.27502 0.56436,-0.324 1.4527,-0.88835 1.96481,-1.2646 0.51209,-0.37623 1.24367,-0.96149 1.61992,-1.27502 a 14.474778,14.474778 0 0 0 1.37955,-1.39001 17.641463,17.641463 0 0 0 1.27503,-1.73487 19.303187,19.303187 0 0 0 1.04511,-1.95436 20.034764,20.034764 0 0 0 0.80474,-2.32015 2.5396182,2.5396182 0 0 1 1.61991,-1.60946 c 0.70022,-0.19858 1.89166,-0.45987 2.65459,-0.58526 0.76294,-0.12546 2.73818,-0.3867 4.38947,-0.57482 1.65127,-0.18811 4.4626,-0.44939 6.27065,-0.58526 1.80804,-0.13585 4.79707,-0.22993 6.69916,-0.22993 1.9021,0 5.08968,0.0523 7.0545,0.12547 1.96481,0.0731 5.08969,0.26128 6.93953,0.45984 1.84985,0.19859 4.7448,0.43896 6.45877,0.57481 1.71399,0.13585 4.42084,0.43896 6.00939,0.70024 a 63.427747,63.427747 0 0 1 7.31579,1.83938 15.143649,15.143649 0 0 1 6.58419,4.38947 c 1.20188,1.65127 5.22554,0.35534 8.88343,-2.8845 3.65788,-3.23985 10.25253,-5.89442 14.56883,-5.89442 4.31632,0 11.75751,-2.2888 16.51275,-5.08971 4.75524,-2.80088 11.89336,-4.56712 15.83342,-3.91915 3.94007,0.64796 11.06772,1.5154 15.83342,1.9648 a 58.348511,58.348511 0 0 1 13.36696,2.81135 66.416762,66.416762 0 0 1 11.43352,7.04404 10.566066,10.566066 0 0 0 13.05342,-0.80473 c 3.50112,-3.23984 9.74043,-5.00608 13.85817,-3.92961 a 35.126159,35.126159 0 0 1 13.40876,7.85922 c 3.23984,3.23984 7.04405,6.093 8.43404,6.35429 a 30.548576,30.548576 0 0 0 3.3548,0.45984 9.8762929,9.8762929 0 0 1 1.84986,0.24038 15.676655,15.676655 0 0 1 1.73487,0.45984 5.4868294,5.4868294 0 0 0 0.80475,0.21947 c 0.0627,0 0.78382,0.16723 1.61991,0.35534 a 24.779565,24.779565 0 0 0 2.99946,0.45985 9.5418574,9.5418574 0 0 1 2.76955,0.70021 14.453876,14.453876 0 0 1 2.30969,1.31685 25.490242,25.490242 0 0 1 2.09023,1.73489 14.182148,14.182148 0 0 0 2.09021,1.61993 c 0.60617,0.34488 2.84272,1.33772 4.97474,2.19471 2.13201,0.85699 5.22554,2.26789 6.98133,3.13533 a 40.351711,40.351711 0 0 0 4.18045,1.84986 17.766875,17.766875 0 0 0 2.19473,0.39713 7.7338165,7.7338165 0 0 0 2.25743,-0.16721 12.21734,12.21734 0 0 1 1.73487,-0.34488 2.9576623,2.9576623 0 0 1 1.14963,0.11491 c 0.29263,0.0941 1.64083,0.71068 3.00992,1.37954 1.36909,0.66888 3.62654,1.63038 5.01654,2.14247 a 37.456755,37.456755 0 0 0 5.54953,1.39 c 1.65127,0.25084 3.06216,0.44941 3.13533,0.44941 0.0731,0 0.83609,0.21946 1.73487,0.45984 a 6.6991574,6.6991574 0 0 1 2.09023,0.93016 7.7860721,7.7860721 0 0 0 3.13533,0.5748 38.669083,38.669083 0 0 1 5.30917,0.70023 c 1.45269,0.31352 0.9197,0.99285 2.28878,1.49451 a 7.9532898,7.9532898 0 0 0 4.04459,0.4703 17.118908,17.118908 0 0 1 3.06216,-0.57483 17.32793,17.32793 0 0 1 3.13534,0.10448 16.19921,16.19921 0 0 1 3.13533,0.81519 10.60787,10.60787 0 0 1 2.60231,1.60946 6.145249,6.145249 0 0 1 1.43182,1.72443 c 0.14624,0.37625 0.29262,0.79429 0.33443,0.93016 a 1.3690946,1.3690946 0 0 1 -0.16722,0.70021 l -0.18812,0.22994 -0.20903,0.21947 a 4.7029966,4.7029966 0 0 1 -2.23652,0.45985 h -3.55337 c -0.8779,0 -1.7558,-0.4494 -2.6128,-0.45985 h -0.84653 a 11.8411,11.8411 0 0 1 -2.30968,0.30308 h -0.37625 c -0.37624,0 -0.78384,0 -1.17051,0 -0.3867,0 -0.76294,-0.33443 -1.04513,-0.29263 h -0.29263 a 43.131705,43.131705 0 0 1 -5.67494,0.50165 h -4.18045 -12.54132 l -12.66673,-0.0627 c -4.18046,0 -8.45495,0.37624 -12.66674,0.34489 -3.66834,0 -7.44119,-0.45985 -11.29765,-0.44939 h -11.59026 -15.25862 c -3.92962,-0.0836 -8.51766,-0.19859 -10.18983,-0.27174 -1.67218,-0.0731 -4.41036,0 -6.08254,0.0627 -1.67217,0.0627 -4.39991,0.19856 -6.07209,0.20902 l -6.08254,0.0627 c -1.66174,0 -4.47309,0 -6.27067,0 h -1.55722 c -1.55721,0 -3.13533,0 -4.66118,0 h -4.703 c -1.58857,0 -3.19803,-0.30307 -4.83885,-0.29262 -4.04459,0.0731 -8.00556,0.41803 -11.94562,0.41803 -3.94006,0 -7.84879,0 -11.73659,-0.0627 l -11.68433,-0.10448 c -3.91916,0 -7.85924,-0.94061 -11.80976,-0.94061 -3.37571,0.0523 -6.75141,0.97196 -10.14801,0.97196 -3.39661,0 -6.80367,0 -10.20028,0 h -10.15847 q -5.0688,0 -10.06441,0 h -2.09023 c -1.31684,-0.9824 -4.06548,-1.04511 -6.11389,-0.11492 l -5.5391,-0.0627 c -2.29922,0 -4.55668,0 -6.80365,0 h -2.23654 c -2.40375,0 -4.51489,0 -4.68209,0 h -0.93016 c -0.34488,0 -0.76292,0.0523 -0.93014,0.0523 h -3.96097 c -2.01706,0 -5.29871,0.0627 -7.31577,0.15679 -2.01706,0.0941 -5.28827,0.0941 -7.31577,0 -2.02751,-0.0941 -5.28826,-0.15679 -7.31577,-0.14624 -2.02752,0.01 -3.54294,-0.25082 -3.41752,-0.56435 a 1.6512742,1.6512742 0 0 0 0.11492,-0.90924 c -0.0627,-0.19858 -0.45986,0 -0.88834,0.533 a 5.6644981,5.6644981 0 0 1 -0.99286,0.9615 22.511676,22.511676 0 0 1 -2.85315,0 h -1.39 c -1.38999,0 -2.81134,0.0523 -4.18044,0.0627 -1.36911,0.01 -2.81136,-0.17768 -4.18045,-0.15678 h -1.35864 a 54.439797,54.439797 0 0 1 -8.85208,-0.62708 l -3.22939,-0.0523 c -3.21895,-0.0523 -6.51104,0.61661 -9.78224,0.59571 -3.2712,-0.021 -6.54238,0 -9.82403,0 h -3.2712 -6.59464 -0.16723 -0.15678 -0.15679 a 3.8564572,3.8564572 0 0 1 -0.61662,-0.63751 h -0.49121 c -0.55389,0 -1.67217,0.72112 -2.23652,0.71067 h -1.71399 c -0.5748,0 -1.16007,0 -1.76624,0 -3.54293,0.0941 -7.1799,-0.18811 -10.84824,-0.17766 -3.66833,0.01 -7.31577,0.30307 -10.96322,0.28217 -3.64742,-0.021 -4.09683,1.42134 -7.56659,1.42134 -3.46976,0 -6.80366,0 -9.94945,0.10449 q -3.52202,0.0627 -7.04405,0.0731 -3.52201,0.01 -7.06493,0 c -2.3515,0 -7.81743,-1.50497 -10.17939,-1.53632 h -2.36185 l -4.79705,-0.10448 a 0.39714193,0.39714193 0 0 0 -0.10448,0 h -0.11497 -0.11496 l -1.4318,0.45985 h -0.66888 c -2.84269,0 -3.53247,-0.39715 -2.09022,-0.39715 h -4.56713 c -4.44171,0.10448 -8.85209,-0.24037 -13.252,-0.19857 -4.39992,0.0419 -6.67826,1.60947 -11.09907,1.61992 -4.42082,0.01 -5.22555,-1.09737 -9.77178,-1.0451 h -4.49397 c -5.04789,-0.21948 -9.25968,-0.4076 -9.406,-0.42851 l -0.36578,-0.0627 -0.36579,-0.0627 -0.3658,-0.0731 a 0.83608828,0.83608828 0 0 0 -0.27173,0 h -0.28217 -0.28218 l -0.83609,0.10448 h -0.43895 l -1.36909,0.0523 c -0.4703,0 -0.9406,-0.29263 -1.40045,-0.30308 h -0.45985 a 63.960754,63.960754 0 0 1 -6.67825,0.72112 h -2.87408 -8.51765 c -2.81135,0 -5.62269,0.29264 -8.42359,0.3031 -2.8009,0.01 -5.60179,-0.29264 -8.36089,-0.25084 -1.49451,0 -3.13532,0 -4.70299,0 -1.56766,0 -3.26074,-0.36578 -4.84931,-0.36578 -1.58857,0 -3.13534,0.39715 -4.53578,0.33443 l -1.4109,-0.0731 a 5.8735201,5.8735201 0 0 1 -2.393303,-0.61662 c 0,-0.16721 0,-0.53301 0,-0.80473 v -1.04511"
     id="path52"
     style="fill:#b44921;fill-opacity:1;stroke-width:1.04511046"
     inkscape:connector-curvature="0"
     inkscape:export-filename="C:\Users\suitedoalex\sites\outback-logo-4.png"
     inkscape:export-xdpi="69.574913"
     inkscape:export-ydpi="69.574913" />
</svg>
